<svg xmlns="http://www.w3.org/2000/svg" version="1.1" xmlns:xlink="http://www.w3.org/1999/xlink" xmlns:svgjs="http://svgjs.dev/svgjs" width="100%" height="100%" viewBox="0 0 1000 600"><rect width="1000" height="600" x="0" y="0" fill="#ffffff"/><g><rect width="333.3333333333333" height="333.3333333333333" rx="13.333333333333334" ry="13.333333333333334" y="193.15741929678617" fill="#8800ff" transform="matrix(0.7312713480887323,0,0,0.7312713480887324,0,36.870967122060534)" x="170.9351806640625"/><path d="M306.49964850998026 318.21935520152L306.49964850998026 318.21935520152Q306.49964850998026 319.0301660018815 305.6128241970848 323.7936794540053Q304.7259998841895 328.5571929061291 303.83917557129405 336.3865846971197Q302.9523512583987 344.2413143256217 302.9523512583987 352.52678719181574L302.9523512583987 352.52678719181574Q302.9523512583987 357.84773306918805 303.2564053085342 362.48455733375533Q303.56045935866985 367.1213815983226 304.4219458340539 372.1129355880481Q305.2580944719267 377.1044895777735 306.6009998600254 381.1078679045585Q307.9439052481241 385.11124623134333 310.19897278662955 388.81057050799257Q312.47937816264624 392.5098947846419 315.46924298897926 394.9676650232377Q318.4591078153123 397.4000974243222 322.7158645172101 398.86969199997736Q326.99795905661927 400.3392865756326 332.24289142145767 400.3392865756326L332.24289142145767 400.3392865756326Q337.5891751363413 400.3392865756326 341.921945350773 399.2244217251356Q346.2293777276934 398.13489471214984 348.6871479662892 397.045367699164Q351.144918204885 395.98117852368955 351.9303911677352 395.98117852368955L351.9303911677352 395.98117852368955Q353.9827560061502 395.98117852368955 353.9827560061502 398.13489471214984Q353.9827560061502 400.2632730630987 352.15843170533685 403.07577302685263Q350.3341074045235 405.86293515309524 347.09086420307756 408.59942160431535Q343.8476210016315 411.31057021802405 338.5773507992818 413.1348945188374Q333.3324184344434 414.9592188196508 327.3526887817774 414.9592188196508L327.3526887817774 414.9592188196508Q315.6972835265809 414.9592188196508 307.3104593103417 410.77847563028683Q298.9489729316138 406.59773244092287 294.00809461691097 398.48962443730795Q289.0418784646968 390.38151643369304 286.73613525116883 379.5622598163693Q284.4303920376408 368.7176653615344 284.4303920376408 354.3764493301404L284.4303920376408 354.3764493301404Q284.4303920376408 341.8342197620485 285.5452568881379 335.7278009218261Q286.6347839011236 329.62138208160354 288.86451360211777 325.33928754219437L288.86451360211777 325.33928754219437Q291.3729595157361 320.7024632776271 296.0097837803034 317.8139498013393Q300.62127020735943 314.92543632505146 303.7378242212489 314.92543632505146L303.7378242212489 314.92543632505146Q306.49964850998026 314.92543632505146 306.49964850998026 318.21935520152ZM384.64153939481923 346.1923278139916L384.64153939481923 346.1923278139916Q384.64153939481923 360.17881412022734 382.0824178061783 371.9862464004916Q379.5486340550486 383.7936786807559 373.67025575242775 397.2227325617431L373.67025575242775 397.2227325617431Q372.4287017143742 399.7311784753615 372.4287017143742 401.07408386346026L372.4287017143742 401.07408386346026Q372.4287017143742 403.37982707698825 374.3797152027441 405.0774621902451L374.3797152027441 405.0774621902451L387.3020123335054 417.6196917583369Q390.773296072553 421.11631333489595 390.773296072553 423.1433403357996L390.773296072553 423.1433403357996Q390.773296072553 425.7277997619519 386.8205934207907 430.2886105139853Q382.84255293151716 434.8240834285074 378.94052595477746 434.8240834285074L378.94052595477746 434.8240834285074Q377.06552597894154 434.8240834285074 374.55708006532313 432.2396240023552L374.55708006532313 432.2396240023552L356.84593164492674 413.61631343155204Q355.04694518162466 411.8426648057613 355.04694518162466 409.7902999673463L355.04694518162466 409.7902999673463Q355.04694518162466 408.90347565445086 355.60437760687324 407.8392864789764Q356.13647219461046 406.775097303502 357.45403974519786 404.4440162524627Q358.7969451332966 402.1382730389347 359.96248565881626 399.6298271253163L359.96248565881626 399.6298271253163Q366.09424233655005 386.17543540681777 366.09424233655005 361.5217195083261L366.09424233655005 361.5217195083261Q366.09424233655005 354.1230709550274 365.8915396364597 348.5994223775648Q365.663499098858 343.07577380010207 364.72599911094005 336.2092198345407Q363.78849912302206 329.3426658689792 362.21755319732165 324.37644971676514Q360.6719451091326 319.38489572703963 357.7834316328447 314.34266606229164Q354.8695803190456 309.3004363975436 350.86620199226076 306.1585445461428Q346.86282366547584 302.9913148572307 340.9337696878324 301.0149635313496Q335.004715710189 299.06395004297974 327.5300536443565 299.06395004297974L327.5300536443565 299.06395004297974Q325.47768880594145 299.06395004297974 322.8932293797892 299.4186797681379Q320.3087699536369 299.77340949329607 316.0013375767165 300.8375986687705Q311.66856736228476 301.92712568175625 306.47431067246896 304.53692294541986Q301.25471614514186 307.17205804659466 296.36451350546156 311.09942286084566L296.36451350546156 311.09942286084566Q295.90843243025824 311.45415258600383 294.92025676731765 312.21428771134276Q293.95741894188836 312.97442283668164 293.50133786668505 313.3291525618398Q293.070594628993 313.6838822869979 292.3357973411654 314.1653011997126Q291.6263378908491 314.6467201124272 291.14491897813446 314.87476065002886Q290.6635000654198 315.1028011876306 290.3087703402616 315.1028011876306L290.3087703402616 315.1028011876306Q288.4337703644257 315.1028011876306 288.4337703644257 313.3291525618398L288.4337703644257 313.3291525618398Q288.4337703644257 310.6433417856423 292.2597838286315 305.6517877959169L292.2597838286315 305.6517877959169Q300.08917561962215 295.415301441353 311.54187817472825 290.119693401492Q322.9945807298344 284.824085361631 335.004715710189 284.824085361631L335.004715710189 284.824085361631Q384.64153939481923 284.824085361631 384.64153939481923 346.1923278139916Z " fill="#00ffff" transform="matrix(0.7312713480887323,0,0,0.7312713480887324,0,36.870967122060534)"/><path d="M646.9050836458262 308.01693377466404L646.9050836458262 308.01693377466404L590.5572230718177 308.01693377466404Q587.6018472654005 308.01693377466404 587.6018472654005 305.8835830269854L587.6018472654005 305.8835830269854Q587.6018472654005 304.92455379179034 588.9718890299648 302.38019051474237Q590.3615028197371 299.83582723769445 592.2208452145029 298.1722050950092L592.2208452145029 298.1722050950092Q593.7866072311479 296.74344725482075 597.3095717685989 296.74344725482075L597.3095717685989 296.74344725482075L653.6574323426073 296.74344725482075Q656.6128081490244 296.74344725482075 656.6128081490244 298.8767980024994L656.6128081490244 298.8767980024994Q656.6128081490244 299.83582723769445 655.2427663844602 302.38019051474237Q653.872724619896 304.92455379179034 652.01338222513 306.5686039092675L652.01338222513 306.5686039092675Q650.4280481832772 308.01693377466404 646.9050836458262 308.01693377466404ZM613.945793195451 391.00232065684384L613.945793195451 391.00232065684384L613.8870771198267 316.2763284124659Q613.8870771198267 313.79068121104217 615.5702712877201 313.0078002027197Q617.2534654556132 312.2249191943972 620.7764299930643 312.2249191943972L620.7764299930643 312.2249191943972Q624.6125469338443 312.2249191943972 626.1587369252811 313.0078002027197Q627.7244989419261 313.79068121104217 627.7244989419261 316.2763284124659L627.7244989419261 316.2763284124659L627.7244989419261 383.70195525423696Q627.7244989419261 386.6573310606542 626.3348851521537 388.3209532033395L626.3348851521537 388.3209532033395Q624.5538308582202 390.4543039510181 621.4223068249303 392.2157862197437Q618.2907827916406 393.9576964632611 616.3727243212505 393.9576964632611L616.3727243212505 393.9576964632611Q613.945793195451 393.9576964632611 613.945793195451 391.00232065684384ZM694.797829329952 320.68003408427967L694.797829329952 320.68003408427967Q710.4945935468172 320.68003408427967 717.8928190754643 329.9376020076927Q725.2910446041114 339.1951699311056 725.2910446041114 357.2210051477301L725.2910446041114 357.2210051477301Q725.2910446041114 362.79903233202754 723.8818587891311 369.1599405246475Q722.4726729741507 375.5208487172674 720.0653138735591 380.4725710949069L720.0653138735591 380.4725710949069Q717.442662495679 385.6983018254592 713.6652616305231 389.3582705393667Q709.8682887401592 392.9986672280661 707.5392177404 392.9986672280661L707.5392177404 392.9986672280661Q706.0908878750034 392.9986672280661 706.0908878750034 391.687341539126L706.0908878750034 391.687341539126Q706.0908878750034 391.27632900975675 706.5801885052049 390.5913081274746Q707.0499171101984 389.9062872451924 707.871942168937 388.49710143021207Q708.6939672276756 387.0879156152316 709.3202720343335 385.2285732204658L709.3202720343335 385.2285732204658Q712.1386436642944 377.5171952884897 712.1386436642944 363.4057651134774L712.1386436642944 363.4057651134774Q712.1386436642944 355.6356711058771 711.081754303059 349.88149569470716Q710.0052929166156 344.1468923087451 707.558789765608 339.66489853609914Q705.1318586398083 335.2024767886611 700.7868690436188 332.89297781410994Q696.4614514726372 330.58347883955867 690.1984034060577 330.58347883955867L690.1984034060577 330.58347883955867Q681.5279962388865 330.58347883955867 672.3095723658896 336.92481500697056L672.3095723658896 336.92481500697056Q671.9572759121445 337.19882335988336 671.2722550298624 337.64897993966883Q670.5872341475803 338.07956449424614 670.195793643419 338.3731448723671Q669.8239251644659 338.6471532252799 669.4129126350965 338.8428734773605Q669.0019001057273 339.0581657546493 668.7278917528145 339.0581657546493L668.7278917528145 339.0581657546493Q667.7688625176195 339.0581657546493 667.7688625176195 337.88384424216554L667.7688625176195 337.88384424216554Q667.7688625176195 337.12053525905117 668.5517435259419 335.6722053936546Q669.3541965594724 334.2434475534661 669.9022132652981 333.5388546459759L669.9022132652981 333.5388546459759Q679.9426621970335 320.68003408427967 694.797829329952 320.68003408427967ZM678.0246037266436 355.283374652132L678.0246037266436 355.283374652132Q678.0246037266436 360.09809285331505 678.2203239787241 363.54276928993386Q678.4356162560128 366.98744572655266 679.0032049870466 370.7061305160843Q679.5903657432884 374.424815305616 680.8038313061883 376.89089048183166Q681.99772484388 379.3765376832555 683.8374952134377 381.4316003301019Q685.6576935577874 383.50623500215636 688.4760651877483 384.50440828776755Q691.2944368177091 385.5025815733786 695.071837682865 385.5025815733786L695.071837682865 385.5025815733786Q698.320793867403 385.5025815733786 700.7477249932026 384.6022684138078Q703.1942281442103 383.70195525423696 703.5465245979555 383.70195525423696L703.5465245979555 383.70195525423696Q704.994854463352 383.70195525423696 704.994854463352 385.2285732204658L704.994854463352 385.2285732204658Q704.994854463352 388.3209532033395 700.5520047411221 391.86348976599857Q696.1091550188921 395.4060263286576 689.6503867002319 395.4060263286576L689.6503867002319 395.4060263286576Q683.6613469865651 395.4060263286576 679.2184972643353 393.40967975743536Q674.7756475421054 391.4133331862131 672.094280088601 388.18394902688306Q669.4129126350965 384.9545648675529 667.7884345428274 380.06155856553755Q666.1835284757665 375.1685522635223 665.6355117699408 370.2168298858828Q665.087495064115 365.2651075082433 665.087495064115 359.0020594416636L665.087495064115 359.0020594416636Q665.087495064115 355.49866692942066 665.7725159463972 351.6038339130165Q666.4575368286794 347.7285729218204 667.631858341163 345.65393824976593L667.631858341163 345.65393824976593Q669.0606161813514 343.18786307355015 672.2704283154735 341.1132284014957Q675.4606684243874 339.0581657546493 677.7310233485226 339.0581657546493L677.7310233485226 339.0581657546493Q679.453361566832 339.0581657546493 679.453361566832 341.1132284014957L679.453361566832 341.1132284014957Q679.453361566832 341.4655248552408 678.7291966341338 346.4172472328803Q678.0246037266436 351.3689696105198 678.0246037266436 355.283374652132ZM740.2244998378623 391.00232065684384L740.2244998378623 391.00232065684384L740.2244998378623 356.3206919881593Q740.2244998378623 352.46500302217123 742.0838422326281 350.4099403753248L742.0838422326281 350.4099403753248Q743.9236126021858 348.2765896276461 746.4875479044418 346.51510735892055Q749.0319111814898 344.7536250901951 750.4606690216783 344.7536250901951L750.4606690216783 344.7536250901951Q752.594019769357 344.7536250901951 752.594019769357 347.7285729218204L752.594019769357 347.7285729218204L752.594019769357 385.28728929608997Q752.594019769357 389.0842621864539 749.2276314335704 391.51119331225345Q745.8612430977839 393.9576964632611 742.6318589384538 393.9576964632611L742.6318589384538 393.9576964632611Q740.2244998378623 393.9576964632611 740.2244998378623 391.00232065684384ZM769.7978299272429 320.68003408427967L769.7978299272429 320.68003408427967Q773.7318069940632 320.68003408427967 778.0180805146285 322.40237230258913Q782.3239260604021 324.1247105208985 782.3239260604021 326.86479405002706L782.3239260604021 326.86479405002706Q782.3239260604021 329.076432898538 779.446838354817 331.4446479487134Q776.550178624024 333.8128629988888 774.338539775513 333.8128629988888L774.338539775513 333.8128629988888Q772.4791973807472 333.8128629988888 769.1128090449607 332.1100968057875L769.1128090449607 332.1100968057875Q765.9421409612548 330.58347883955867 763.3390616085826 330.58347883955867L763.3390616085826 330.58347883955867Q761.6950114911056 330.58347883955867 760.1683935248767 331.11192352017633Q758.661347583856 331.62079617558595 756.6650010126338 333.1082700913986Q754.6686544414115 334.5761719820032 753.3964728028875 335.6526333684466Q752.1242911643635 336.7095227296819 749.0514832066979 339.5670384100588Q745.9982472742404 342.4245540904358 744.2759090559309 343.93160003145647L744.2759090559309 343.93160003145647Q742.7688631149102 345.24292572039656 741.731545778883 345.24292572039656L741.731545778883 345.24292572039656Q740.2244998378623 345.24292572039656 740.2244998378623 342.6985624433486L740.2244998378623 342.6985624433486L740.2244998378623 329.3504412514509Q740.2244998378623 325.63175646191917 743.630032224065 323.1656812857035Q747.0355646102676 320.68003408427967 750.1866606687654 320.68003408427967L750.1866606687654 320.68003408427967Q752.594019769357 320.68003408427967 752.594019769357 323.6354098906969L752.594019769357 323.6354098906969L752.594019769357 327.49109885668497Q752.594019769357 329.702737705196 753.5726210297601 329.702737705196L753.5726210297601 329.702737705196Q754.3163579876664 329.702737705196 755.9799801303516 328.0391155625107L755.9799801303516 328.0391155625107Q763.3390616085826 320.68003408427967 769.7978299272429 320.68003408427967ZM806.4170890915254 320.68003408427967L806.4170890915254 320.68003408427967Q806.4170890915254 321.3063388909377 805.7320682092434 324.9858796300532Q805.0274753017532 328.6654203691687 804.342454419471 334.71317615845965Q803.6574335371888 340.7805039729586 803.6574335371888 347.18055621599467L803.6574335371888 347.18055621599467Q803.6574335371888 351.2906815096875 803.8922978396856 354.87236212276275Q804.1467341673904 358.4540427358379 804.7926109992565 362.3097317018261Q805.4384878311224 366.16542066781415 806.4758051671497 369.25780065068784Q807.513122503177 372.3501806335614 809.2746047719024 375.2076963139384Q811.0165150154198 378.0652119943154 813.3260139899711 379.9636984394973Q815.6355129645224 381.84261285947116 818.9431852246847 382.9777903215387Q822.231285459639 384.11296778360634 826.3022667029157 384.11296778360634L826.3022667029157 384.11296778360634Q830.4319640218166 384.11296778360634 833.7592083071871 383.2517986744516Q837.1060246177656 382.4102015905049 838.9849390377394 381.56860450655836Q840.8834254829214 380.7465794478197 841.5097302895794 380.7465794478197L841.5097302895794 380.7465794478197Q843.0950643314324 380.7465794478197 843.0950643314324 382.4102015905049Q843.0950643314324 384.0542517079821 841.6663064912439 386.2267465060769Q840.2571206762634 388.37966927896366 837.7519014496316 390.4934480014342Q835.2466822229998 392.58765469869684 831.175700979723 393.9968405136773Q827.1242917616544 395.4060263286576 822.5052938125518 395.4060263286576L822.5052938125518 395.4060263286576Q813.5021622168438 395.4060263286576 807.0238218729754 392.1766421693276Q800.5650535543152 388.9472580099974 796.7485086387433 382.68420994341784Q792.9319637231713 376.42116187683826 791.1313374040296 368.06390711299605Q789.350283110096 359.6870803239458 789.350283110096 348.60931405618317L789.350283110096 348.60931405618317Q789.350283110096 338.9211615781928 790.2114522192508 334.20430350305Q791.0726213284055 329.48744542790723 792.7949595467148 326.1797731677449L792.7949595467148 326.1797731677449Q794.7130180171048 322.59809255466973 798.29469863018 320.36688168095077Q801.8763792432553 318.1356708072317 804.2837383438468 318.1356708072317L804.2837383438468 318.1356708072317Q806.4170890915254 318.1356708072317 806.4170890915254 320.68003408427967ZM866.7576428079784 342.2875499139793L866.7576428079784 342.2875499139793Q866.7576428079784 353.09130782882914 864.8004402871723 362.2118715757857Q862.8236657411582 371.3324353227423 858.2829558928879 381.7056086830148L858.2829558928879 381.7056086830148Q857.3239266576929 383.6432391786128 857.3239266576929 384.6805565146401L857.3239266576929 384.6805565146401Q857.3239266576929 386.4616108085736 858.8505446239217 387.7729364975138L858.8505446239217 387.7729364975138L868.8127054548249 397.461088975504Q871.4940729083291 400.1620284542165 871.4940729083291 401.72779047086146L871.4940729083291 401.72779047086146Q871.4940729083291 403.7241370420837 868.4408369758717 407.24710157953473Q865.3876010434142 410.7504940917777 862.3539371361646 410.7504940917777L862.3539371361646 410.7504940917777Q860.9056072707681 410.7504940917777 858.9875488003781 408.7541475205554L858.9875488003781 408.7541475205554L845.2871311547352 394.36870899263045Q843.917089390171 392.9986672280661 843.917089390171 391.4133331862131L843.917089390171 391.4133331862131Q843.917089390171 390.72831230393103 844.3281019195401 389.9062872451924Q844.7391144489095 389.0842621864539 845.7764317849367 387.2836358673122Q846.7941770957559 385.5025815733786 847.6944902553267 383.5649510777806L847.6944902553267 383.5649510777806Q852.4504923808856 373.17220569230005 852.4504923808856 354.12862516485643L852.4504923808856 354.12862516485643Q852.4504923808856 348.41359380410256 852.2743441540131 344.1468923087451Q852.0981959271405 339.8801908133878 851.3740309944423 334.5761719820032Q850.649866061744 329.2721531506186 849.4559725240522 325.43603620983856Q848.2425069611525 321.5803472438505 846.0112960874335 317.68551422744633Q843.7800852137145 313.79068121104217 840.6681332056327 311.3637500852425Q837.5757532227591 308.91724693423487 832.9958993240728 307.3906289680061Q828.4356174505945 305.8835830269854 822.6422979890083 305.8835830269854L822.6422979890083 305.8835830269854Q821.0765359723634 305.8835830269854 819.0801894011412 306.15759137989824Q817.0838428299189 306.4315997328111 813.7370265193404 307.25362479154967Q810.40978223397 308.0952218754963 806.3779450411093 310.1111404719266Q802.3461078482487 312.146631093565 798.5687069830929 315.18029500081445L798.5687069830929 315.18029500081445Q798.2164105293479 315.45430335372737 797.4726735714415 316.0414641099692Q796.7093645883272 316.628624866211 796.357068134582 316.9026332191239Q796.024343706045 317.1766415720367 795.4763270002193 317.5485100509899Q794.9283102943936 317.92037852994304 794.5368697902322 318.0965267568156Q794.1650013112792 318.27267498368815 793.8909929583663 318.27267498368815L793.8909929583663 318.27267498368815Q792.4426630929697 318.27267498368815 792.4426630929697 316.9026332191239L792.4426630929697 316.9026332191239Q792.4426630929697 314.82799854706934 795.3980388993871 310.9723095810813L795.3980388993871 310.9723095810813Q801.4653667138859 303.06521139702454 810.2923500827217 298.9746581285398Q819.1389054767653 294.8841048600549 828.4356174505945 294.8841048600549L828.4356174505945 294.8841048600549Q866.7576428079784 294.8841048600549 866.7576428079784 342.2875499139793ZM908.1720481482361 395.4060263286576L908.1720481482361 395.4060263286576Q902.3983007118579 395.4060263286576 898.229459342541 393.918552412845Q894.0801899984319 392.4506505222404 891.4575386205518 389.0451181360378Q888.8348872426716 385.6395857498351 887.6018496545637 380.198562741994Q886.3688120664558 374.75753973415294 886.3688120664558 366.772153449264L886.3688120664558 366.772153449264L886.3688120664558 329.40915732707504Q886.3688120664558 327.5693869575173 887.3669853520669 325.9449088652482Q888.3651586376781 324.3204307729791 889.8330605282827 323.1656812857035Q891.3205344440953 321.99135977321976 893.0820167128209 321.32591091614574Q894.8239269563383 320.68003408427967 896.3505449225671 320.68003408427967L896.3505449225671 320.68003408427967Q898.7579040231585 320.68003408427967 898.7579040231585 323.6354098906969L898.7579040231585 323.6354098906969L898.7579040231585 365.5391158611561L899.0319123760714 370.84313469254073Q899.3059207289843 374.75753973415294 900.1279457877229 377.5563393389058Q900.9499708464615 380.33556691845047 902.6135929891466 382.097049187176Q904.2576431066238 383.8389594306934 906.7628623332557 384.6805565146401Q909.2876535850955 385.5025815733786 912.8497621729628 385.5025815733786L912.8497621729628 385.5025815733786Q918.5647935337166 385.5025815733786 923.2425075584433 382.8212141198742L923.2425075584433 382.8212141198742Q924.5538332473834 382.0579051367598 924.9648457767527 382.0579051367598L924.9648457767527 382.0579051367598Q925.5911505834106 382.0579051367598 925.8260148859074 382.5472057669614Q926.0608791884041 383.0169343719549 926.0608791884041 384.6022684138078L926.0608791884041 384.6022684138078Q926.0608791884041 387.4989281446009 924.0645326171818 389.5148467410312Q922.0681860459596 391.55033736266955 919.2498144159988 392.86166305160964Q916.4314427860379 394.1729887405497 913.3782068535804 394.7797215219997Q910.3053988959148 395.4060263286576 908.1720481482361 395.4060263286576ZM941.9533636573499 323.6354098906969L941.9533636573499 323.6354098906969L941.9533636573499 385.28728929608997Q941.9533636573499 389.0059740856216 938.5478312711472 391.4916212870454Q935.1422988849445 393.9576964632611 931.9912028264466 393.9576964632611L931.9912028264466 393.9576964632611Q929.5838437258551 393.9576964632611 929.5838437258551 391.00232065684384L929.5838437258551 391.00232065684384L929.5838437258551 329.3504412514509Q929.5838437258551 325.7687606383756 933.0089481372659 323.22439736132765Q936.4536245738847 320.68003408427967 939.5460045567584 320.68003408427967L939.5460045567584 320.68003408427967Q941.9533636573499 320.68003408427967 941.9533636573499 323.6354098906969ZM986.2057126527764 320.68003408427967L986.2057126527764 320.68003408427967Q991.9794600891544 320.68003408427967 996.5984580382569 322.18708002530036Q1001.1978839621513 323.7136979915292 1004.3685520458573 327.0409422768996Q1007.5392201295631 330.38775858747806 1009.2224142974565 335.6526333684466Q1010.9056084653498 340.9175081494151 1010.9056084653498 348.33530570327025L1010.9056084653498 348.33530570327025L1010.9056084653498 385.6395857498351Q1010.9056084653498 387.3619239681444 1009.8487191041144 388.86896990916523Q1008.772257717671 390.3760158501859 1007.2260677262343 391.51119331225345Q1005.6798777347974 392.646370774321 1003.9183954660718 393.3118196313951Q1002.1764852225544 393.9576964632611 1000.8651595336144 393.9576964632611L1000.8651595336144 393.9576964632611Q998.4578004330227 393.9576964632611 998.4578004330227 391.00232065684384L998.4578004330227 391.00232065684384L998.4578004330227 350.87966898031823Q998.4578004330227 330.58347883955867 982.3500236867883 330.58347883955867L982.3500236867883 330.58347883955867Q972.994595637335 330.58347883955867 965.3615058061912 335.75049349448693L965.3615058061912 335.75049349448693Q962.3278418989416 337.7468400657091 961.4275287393708 337.7468400657091L961.4275287393708 337.7468400657091Q960.4097834285517 337.7468400657091 960.4097834285517 336.65080665405765L960.4097834285517 336.65080665405765Q960.4097834285517 334.71317615845965 962.5431341762303 332.1100968057875L962.5431341762303 332.1100968057875Q971.8985622256836 320.68003408427967 986.2057126527764 320.68003408427967ZM993.2320697024704 389.41698661499095L993.2320697024704 389.41698661499095Q990.3354099716773 392.0396379928711 986.06870847632 393.72283216076437Q981.8020069809626 395.4060263286576 977.8876019393504 395.4060263286576L977.8876019393504 395.4060263286576Q968.7278941419777 395.4060263286576 963.8740318903784 390.5521640770585Q959.0201696387793 385.6983018254592 959.0201696387793 378.6132287001411L959.0201696387793 378.6132287001411Q959.0201696387793 373.52450214604517 962.5431341762303 370.84313469254073L962.5431341762303 370.84313469254073Q965.6942302347281 368.3574874911169 968.0428732596955 368.3574874911169L968.0428732596955 368.3574874911169Q968.8061822428099 368.3574874911169 969.3541989486356 368.90550419694273Q969.9022156544613 369.4730929279765 969.9022156544613 370.5691263396279L969.9022156544613 370.5691263396279Q969.9022156544613 378.4175084480604 972.5835831079658 381.96004501071957Q975.2649505614702 385.5025815733786 982.1543034347077 385.5025815733786L982.1543034347077 385.5025815733786Q984.2093660815541 385.5025815733786 987.1647418879713 384.77841664068035Q990.1201176943887 384.0542517079821 992.1947523664431 382.8212141198742L992.1947523664431 382.8212141198742Q993.4277899545509 382.0579051367598 994.054094761209 382.0579051367598L994.054094761209 382.0579051367598Q995.0131239964039 382.0579051367598 995.0131239964039 384.6022684138078L995.0131239964039 384.6022684138078Q995.0131239964039 387.7729364975138 993.2320697024704 389.41698661499095ZM992.6644809714367 352.2692827700906L992.6644809714367 352.2692827700906Q993.9758066603767 352.9543036523727 994.4651072905783 354.08948111444033Q994.9348358955717 355.22465857650786 994.9348358955717 358.31703855938156L994.9348358955717 358.31703855938156Q994.9348358955717 361.0766941137182 994.5042513409944 362.27058765140987Q994.054094761209 363.4840532143097 992.8797732487253 363.4840532143097L992.8797732487253 363.4840532143097Q992.1164642656108 363.4840532143097 990.7464225010466 362.8577484076518L990.7464225010466 362.8577484076518Q984.2876541823864 360.0393767776909 979.0423514266259 360.0393767776909L979.0423514266259 360.0393767776909Q970.5872365367435 360.0393767776909 962.9541467055997 366.16542066781415L962.9541467055997 366.16542066781415Q960.5467876050079 368.0834791382041 959.7051905210615 368.0834791382041L959.7051905210615 368.0834791382041Q958.60915710941 368.0834791382041 958.60915710941 366.8504415500962L958.60915710941 366.8504415500962Q958.60915710941 364.93238307970626 959.9987708991823 362.6620281555711L959.9987708991823 362.6620281555711Q963.6391675878817 356.53598426544795 969.5890632511323 353.32617213132596Q975.5389589143831 350.1359320224119 982.8393243169899 350.1359320224119L982.8393243169899 350.1359320224119Q988.4173515012873 350.1359320224119 992.6644809714367 352.2692827700906ZM1027.7571221694905 391.00232065684384L1027.7571221694905 391.00232065684384L1027.7571221694905 296.175858523787Q1027.7571221694905 292.47674575946337 1031.1430825304851 290.03024260845575Q1034.5094708662716 287.5837394574481 1037.7388550256019 287.5837394574481L1037.7388550256019 287.5837394574481Q1040.1462141261932 287.5837394574481 1040.1462141261932 290.53911526386537L1040.1462141261932 290.53911526386537L1040.1462141261932 385.36557739692216Q1040.1462141261932 389.14297826207803 1036.7798257904067 391.55033736266955Q1033.4134374546202 393.9576964632611 1030.164481270082 393.9576964632611L1030.164481270082 393.9576964632611Q1027.7571221694905 393.9576964632611 1027.7571221694905 391.00232065684384ZM1069.4651078878692 323.6354098906969L1069.4651078878692 323.6354098906969L1069.4651078878692 385.09156904400936Q1069.4651078878692 387.6946483966815 1068.2320702997613 389.3582705393667L1068.2320702997613 389.3582705393667Q1066.4314439806194 391.4133331862131 1063.984940829612 392.6855148247371Q1061.5580097038123 393.9576964632611 1059.4833750317578 393.9576964632611L1059.4833750317578 393.9576964632611Q1057.0760159311662 393.9576964632611 1057.0760159311662 391.00232065684384L1057.0760159311662 391.00232065684384L1057.0760159311662 329.56573352873954Q1057.0760159311662 326.94308215085925 1058.3090535192741 325.35774810900637L1058.3090535192741 325.35774810900637Q1060.1096798384158 323.30268546215996 1062.5561829894234 321.99135977321976Q1064.983114115223 320.68003408427967 1067.0577487872774 320.68003408427967L1067.0577487872774 320.68003408427967Q1069.4651078878692 320.68003408427967 1069.4651078878692 323.6354098906969ZM1069.4651078878692 287.7990317347368L1069.4651078878692 287.7990317347368L1069.4651078878692 297.76119256563993Q1069.4651078878692 300.38384394352016 1068.2320702997613 302.0278940609973L1068.2320702997613 302.0278940609973Q1066.4314439806194 304.1025287330518 1063.984940829612 305.3747103715758Q1061.5580097038123 306.6468920100998 1059.4833750317578 306.6468920100998L1059.4833750317578 306.6468920100998Q1057.0760159311662 306.6468920100998 1057.0760159311662 303.6915162036825L1057.0760159311662 303.6915162036825L1057.0760159311662 293.70978334757126Q1057.0760159311662 291.0284158940668 1058.3090535192741 289.5017979278381L1058.3090535192741 289.5017979278381Q1060.1096798384158 287.4467352809917 1062.5561829894234 286.1354095920516Q1064.983114115223 284.82408390311144 1067.0577487872774 284.82408390311144L1067.0577487872774 284.82408390311144Q1069.4651078878692 284.82408390311144 1069.4651078878692 287.7990317347368ZM1105.242769968205 340.01719498984426L1105.242769968205 340.01719498984426L1105.242769968205 364.0907859957596Q1105.242769968205 370.0211096338022 1105.9277908504873 374.111662902287Q1106.6128117327694 378.20221617077175 1107.9632814721253 380.7465794478197Q1109.2941791862736 383.2909427248677 1111.329669807912 384.38697613651914Q1113.3651604295505 385.5025815733786 1116.124815983887 385.5025815733786L1116.124815983887 385.5025815733786Q1119.3542001432172 385.5025815733786 1121.507122916104 384.70012853984815Q1123.6796177141987 383.9172475315256 1125.1279475795955 382.9777903215387Q1126.5762774449918 382.0579051367598 1127.5353066801867 381.2750241284374Q1128.4943359153817 380.4725710949069 1129.4729371757849 380.4725710949069L1129.4729371757849 380.4725710949069Q1130.3536783101476 380.4725710949069 1130.764690839517 380.98144375031643Q1131.1757033688862 381.5098884309341 1131.1757033688862 382.33191348967273L1131.1757033688862 382.33191348967273Q1131.1757033688862 383.50623500215636 1130.2558181841073 385.6787298002512Q1129.3359329993286 387.83165257313794 1127.1242941508176 390.00414737123276Q1124.9322273275147 392.1766421693276 1121.3114026640233 393.7815482363885Q1117.690578000532 395.4060263286576 1112.269127017899 395.4060263286576L1112.269127017899 395.4060263286576Q1106.9651081865145 395.4060263286576 1103.285567447399 393.8989803876369Q1099.6060267082835 392.3723624214082 1097.257383683316 388.9668300352055Q1094.928312683557 385.56129764900277 1093.8909953475295 380.10070261595376Q1092.8536780115023 374.6205355576966 1092.8536780115023 366.63514927280755L1092.8536780115023 366.63514927280755L1092.8536780115023 340.01719498984426Q1092.8536780115023 338.51014904882356 1093.5191268685762 337.707696015293Q1094.1650037004424 336.92481500697056 1095.1631769860535 336.57251855322545Q1096.1613502716646 336.2397941246884 1097.2182396329 336.2397941246884Q1098.2947010193434 336.2397941246884 1099.1167260780817 336.2397941246884L1099.1167260780817 336.2397941246884Q1100.3497636661898 336.2397941246884 1101.484941128257 336.33765425072875Q1102.6201185903249 336.435514376769 1103.4617156742715 336.80738285572215Q1104.28374073301 337.19882335988336 1104.7534693380035 337.9425603177897Q1105.242769968205 338.70586930090417 1105.242769968205 340.01719498984426ZM1089.2719973984272 325.08373975609345L1089.2719973984272 325.08373975609345L1089.2719973984272 328.9981447977058Q1089.2719973984272 330.7204830160151 1088.5282604405206 331.69908427641815Q1087.7649514574064 332.65811351161324 1085.6316007097278 332.65811351161324L1085.6316007097278 332.65811351161324L1082.4022165503975 332.65811351161324Q1079.994857449806 332.65811351161324 1079.994857449806 331.1314955453844L1079.994857449806 331.1314955453844Q1079.994857449806 329.2721531506186 1082.9893773066394 326.04276899128854Q1085.9838971634726 322.8133848319584 1087.7649514574064 322.8133848319584L1087.7649514574064 322.8133848319584Q1089.2719973984272 322.8133848319584 1089.2719973984272 325.08373975609345ZM1105.242769968205 310.28728869879916L1105.242769968205 310.28728869879916L1105.242769968205 319.172988143259Q1105.242769968205 321.3063388909377 1106.2017992034002 322.050075848844Q1107.1608284385952 322.8133848319584 1108.8831666569045 322.8133848319584L1108.8831666569045 322.8133848319584L1127.3395864281063 322.8133848319584Q1129.7469455286978 322.8133848319584 1129.7469455286978 324.3987188738114L1129.7469455286978 324.3987188738114Q1129.7469455286978 326.04276899128854 1127.4374465541466 328.52841619271226Q1125.1279475795955 330.99449136892804 1122.8575926554602 331.8360884528746L1122.8575926554602 331.8360884528746Q1120.6655258321573 332.65811351161324 1114.9504944714033 332.65811351161324L1114.9504944714033 332.65811351161324L1096.5136467254097 332.65811351161324Q1094.7913085071004 332.65811351161324 1093.8127072466973 331.89480452849875Q1092.8536780115023 331.1314955453844 1092.8536780115023 328.9981447977058L1092.8536780115023 328.9981447977058L1092.8536780115023 316.0023200595531Q1092.8536780115023 312.2249191943972 1096.2200663472888 309.7784160433896Q1099.6060267082835 307.3319128923819 1102.8354108676135 307.3319128923819L1102.8354108676135 307.3319128923819Q1105.242769968205 307.3319128923819 1105.242769968205 310.28728869879916ZM1162.8432401555294 395.4060263286576L1162.8432401555294 395.4060263286576Q1157.0499206939432 395.4060263286576 1152.9006513498343 393.918552412845Q1148.7318099805173 392.4506505222404 1146.1091586026369 389.0451181360378Q1143.5060792499648 385.6395857498351 1142.2534696366488 380.198562741994Q1141.0204320485411 374.75753973415294 1141.0204320485411 366.772153449264L1141.0204320485411 366.772153449264L1141.0204320485411 329.40915732707504Q1141.0204320485411 327.5693869575173 1142.0186053341522 325.9449088652482Q1143.0167786197635 324.3204307729791 1144.504252535576 323.1656812857035Q1145.9721544261806 321.99135977321976 1147.7336366949062 321.32591091614574Q1149.4951189636317 320.68003408427967 1151.0021649046523 320.68003408427967L1151.0021649046523 320.68003408427967Q1153.4095240052438 320.68003408427967 1153.4095240052438 323.6354098906969L1153.4095240052438 323.6354098906969L1153.4095240052438 362.4467358782824L1153.6248162825325 368.49449166757336Q1153.6835323581568 370.4908382387956 1153.820536534613 371.70430380169546Q1153.9575407110697 372.89819733938714 1154.172832988358 373.8767985997903Q1154.3685532404388 374.83582783498525 1154.6034175429356 375.7361409945561Q1154.8578538706404 376.61688212891886 1155.2688664000098 378.00649591869114L1155.2688664000098 378.00649591869114Q1156.4431879124934 382.1166212123841 1159.7312881474477 383.8193874054854Q1163.03896040761 385.5025815733786 1168.0689708860818 385.5025815733786L1168.0689708860818 385.5025815733786Q1173.2164135158018 385.5025815733786 1177.9136995657366 382.8212141198742L1177.9136995657366 382.8212141198742Q1179.2054532294687 382.0579051367598 1179.69475385967 382.0579051367598L1179.69475385967 382.0579051367598Q1180.7320711956972 382.0579051367598 1180.7320711956972 384.6022684138078L1180.7320711956972 384.6022684138078Q1180.7320711956972 387.4206400437687 1178.735724624475 389.45613066540704Q1176.739378053253 391.4916212870454 1173.921006423292 392.78337495077744Q1171.083062768123 394.09470063971753 1168.0298268356655 394.76014949679166Q1164.976590903208 395.4060263286576 1162.8432401555294 395.4060263286576ZM1196.546267563811 323.6354098906969L1196.546267563811 323.6354098906969L1196.546267563811 407.24710157953473Q1196.546267563811 412.39454420925483 1195.2349418748709 416.77867785586056Q1193.9431882111387 421.14323947725825 1191.9664136651245 423.8637509811788Q1190.0092111443184 426.5842624850992 1187.6801401445591 428.50232095548927Q1185.3314971195919 430.4203794258792 1183.4525826996178 431.2228324594098Q1181.554096254436 432.0057134677322 1180.1840544898716 432.0057134677322L1180.1840544898716 432.0057134677322Q1179.068449053012 432.0057134677322 1179.068449053012 431.04668423253725L1179.068449053012 431.04668423253725Q1179.068449053012 430.4203794258792 1180.1840544898716 428.9133334848585L1180.1840544898716 428.9133334848585Q1182.513125489631 425.6839493255284 1183.3742945987856 420.7517989730969Q1184.2354637079404 415.83922064587364 1184.2354637079404 407.52110993244753L1184.2354637079404 407.52110993244753L1184.098459531484 329.56573352873954Q1184.098459531484 326.86479405002706 1185.409785220424 325.35774810900637L1185.409785220424 325.35774810900637Q1187.1908395143578 323.30268546215996 1189.6373426653654 321.99135977321976Q1192.083845816373 320.68003408427967 1194.1389084632194 320.68003408427967L1194.1389084632194 320.68003408427967Q1196.546267563811 320.68003408427967 1196.546267563811 323.6354098906969ZM1156.0908914587483 421.4759639057953L1156.0908914587483 421.4759639057953Q1158.576538660172 423.3353063005611 1160.7098894078508 424.1377593340916Q1162.8432401555294 424.920640342414 1165.935620138403 424.920640342414L1165.935620138403 424.920640342414Q1168.6757036675317 424.920640342414 1172.2182402301908 424.1769033845077Q1175.780348818058 423.4135944013933 1175.9760690701385 423.4135944013933L1175.9760690701385 423.4135944013933Q1177.7766953892801 423.4135944013933 1177.7766953892801 425.13593261970266L1177.7766953892801 425.13593261970266Q1177.7766953892801 428.2870286782006 1172.3943884570633 431.55555688794686Q1167.0316535500544 434.824085097693 1160.846893584307 434.824085097693L1160.846893584307 434.824085097693Q1154.7795657698082 434.824085097693 1149.3776868123832 432.27972182064514Q1143.9758078549585 429.73535854359716 1143.9758078549585 427.2692833673814Q1143.9758078549585 424.78363616595766 1146.7941794849191 422.5915693426548L1146.7941794849191 422.5915693426548Q1150.0431356694573 419.91020188915036 1152.0981983163038 419.91020188915036Q1154.172832988358 419.91020188915036 1156.0908914587483 421.4759639057953Z " fill="#8800ff" transform="matrix(0.7312713480887323,0,0,0.7312713480887324,0,36.870967122060534)"/></g></svg>