<svg xmlns="http://www.w3.org/2000/svg" version="1.1" xmlns:xlink="http://www.w3.org/1999/xlink" xmlns:svgjs="http://svgjs.dev/svgjs" width="100%" height="100%" viewBox="0 0 1000 600"><rect width="1000" height="600" x="0" y="0" fill="#f4efea"/><g><rect width="333.3333333333333" height="333.3333333333333" rx="13.333333333333334" ry="13.333333333333334" y="307.98646464078865" fill="#5550f5" transform="matrix(0.4374235140754764,0,0,0.43742351407547636,0,92.375552342175)" x="285.7642517089844"/><path d="M421.32871228576175 433.04840982808446L421.32871228576175 433.04840982808446Q421.32871228576175 433.859220628446 420.44188797286637 438.6227340805698Q419.555063659971 443.3862475326935 418.6682393470756 451.2156393236842Q417.7814150341802 459.0703689521862 417.7814150341802 467.3558418183802L417.7814150341802 467.3558418183802Q417.7814150341802 472.6767876957525 418.0854690843158 477.3136119603198Q418.38952313445134 481.9504362248871 419.2510096098354 486.94199021461253Q420.08715824770826 491.933544204338 421.43006363580696 495.9369225311229Q422.77296902390566 499.94030085790774 425.0280365624111 503.63962513455704Q427.3084419384278 507.3389494112064 430.2983067647608 509.7967196498022Q433.2881715910938 512.2291520508866 437.54492829299164 513.6987466265418Q441.8270228324008 515.1683412021971 447.0719551972392 515.1683412021971L447.0719551972392 515.1683412021971Q452.41823891212283 515.1683412021971 456.75100912655455 514.0534763517Q461.05844150347497 512.9639493387142 463.51621174207077 511.87442232572846Q465.97398198066657 510.810233150254 466.75945494351674 510.810233150254L466.75945494351674 510.810233150254Q468.8118197819318 510.810233150254 468.8118197819318 512.9639493387142Q468.8118197819318 515.0923276896632 466.9874954811184 517.9048276534171Q465.163171180305 520.6919897796597 461.91992797885905 523.4284762308798Q458.6766847774131 526.1396248445885 453.40641457506337 527.9639491454019Q448.16148221022496 529.7882734462153 442.1817525575589 529.7882734462153L442.1817525575589 529.7882734462153Q430.52634730236247 529.7882734462153 422.13952308612323 525.6075302568513Q413.77803670739536 521.4267870674873 408.8371583926925 513.3186790638724Q403.87094224047837 505.21057106025745 401.5651990269504 494.3913144429338Q399.25945581342233 483.5467199880988 399.25945581342233 469.2055039567049L399.25945581342233 469.2055039567049Q399.25945581342233 456.663274388613 400.37432066391943 450.5568555483905Q401.4638476769052 444.450436708168 403.69357737789926 440.16834216875884L403.69357737789926 440.16834216875884Q406.20202329151766 435.53151790419156 410.83884755608494 432.64300442790375Q415.4503339831409 429.7544909516159 418.56688799703045 429.7544909516159L418.56688799703045 429.7544909516159Q421.32871228576175 429.7544909516159 421.32871228576175 433.04840982808446ZM499.4706031706008 461.021382440556L499.4706031706008 461.021382440556Q499.4706031706008 475.0078687467918 496.91148158195983 486.8153010270561Q494.37769783083013 498.62273330732035 488.4993195282093 512.0517871883076L488.4993195282093 512.0517871883076Q487.25776549015575 514.5602331019259 487.25776549015575 515.9031384900247L487.25776549015575 515.9031384900247Q487.25776549015575 518.2088817035526 489.20877897852563 519.9065168168095L489.20877897852563 519.9065168168095L502.13107610928694 532.4487463849014Q505.6023598483346 535.9453679614603 505.6023598483346 537.9723949623641L505.6023598483346 537.9723949623641Q505.6023598483346 540.5568543885163 501.64965719657226 545.1176651405498Q497.6716167072987 549.6531380550718 493.769589730559 549.6531380550718L493.769589730559 549.6531380550718Q491.89458975472303 549.6531380550718 489.3861438411047 547.0686786289195L489.3861438411047 547.0686786289195L471.6749954207083 528.4453680581165Q469.8760089574062 526.6717194323257 469.8760089574062 524.6193545939107L469.8760089574062 524.6193545939107Q469.8760089574062 523.7325302810153 470.4334413826548 522.6683411055409Q470.965535970392 521.6041519300665 472.2831035209794 519.273070879027Q473.62600890907817 516.9673276654992 474.7915494345978 514.4588817518808L474.7915494345978 514.4588817518808Q480.9233061123316 501.00449003338224 480.9233061123316 476.3507741348905L480.9233061123316 476.3507741348905Q480.9233061123316 468.9521255815919 480.72060341224125 463.4284770041292Q480.49256287463953 457.90482842666654 479.5550628867216 451.0382744611051Q478.6175628988036 444.1717204955437 477.0466169731032 439.2055043433296Q475.5010088849141 434.2139503536041 472.6124954086263 429.17172068885606Q469.69864409482716 424.12949102410806 465.6952657680423 420.98759917270723Q461.6918874412574 417.82036948379516 455.76283346361396 415.84401815791404Q449.8337794859705 413.89300466954415 442.35911742013803 413.89300466954415L442.35911742013803 413.89300466954415Q440.306752581723 413.89300466954415 437.72229315557075 414.2477343947024Q435.13783372941845 414.6024641198605 430.83040135249803 415.6666532953349Q426.4976311380663 416.75618030832067 421.30337444825045 419.3659775719843Q416.08377992092335 422.0011126731591 411.1935772812431 425.92847748741013L411.1935772812431 425.92847748741013Q410.73749620603974 426.28320721256824 409.7493205430992 427.0433423379072Q408.7864827176699 427.8034774632461 408.33040164246654 428.1582071884042Q407.8996584047745 428.5129369135623 407.1648611169469 428.99435582627706Q406.4554016666306 429.4757747389917 405.97398275391595 429.70381527659333Q405.49256384120133 429.931855814195 405.13783411604317 429.931855814195L405.13783411604317 429.931855814195Q403.26283414020725 429.931855814195 403.26283414020725 428.1582071884042L403.26283414020725 428.1582071884042Q403.26283414020725 425.47239641220676 407.08884760441305 420.4808424224813L407.08884760441305 420.4808424224813Q414.9182393954037 410.24435606791747 426.3709419505098 404.94874802805646Q437.8236445056159 399.65313998819545 449.8337794859705 399.65313998819545L449.8337794859705 399.65313998819545Q499.4706031706008 399.65313998819545 499.4706031706008 461.021382440556Z " fill="#f4efea" transform="matrix(0.4374235140754764,0,0,0.43742351407547636,0,92.375552342175)"/><path d="M761.7341474216078 422.8459884012285L761.7341474216078 422.8459884012285L705.3862868475992 422.8459884012285Q702.4309110411821 422.8459884012285 702.4309110411821 420.71263765354985L702.4309110411821 420.71263765354985Q702.4309110411821 419.7536084183548 703.8009528057463 417.20924514130684Q705.1905665955187 414.6648818642589 707.0499089902844 413.00125972157366L707.0499089902844 413.00125972157366Q708.6156710069293 411.5725018813852 712.1386355443803 411.5725018813852L712.1386355443803 411.5725018813852L768.4864961183888 411.5725018813852Q771.441871924806 411.5725018813852 771.441871924806 413.7058526290639L771.441871924806 413.7058526290639Q771.441871924806 414.6648818642589 770.0718301602417 417.20924514130684Q768.7017883956776 419.7536084183548 766.8424460009117 421.39765853583197L766.8424460009117 421.39765853583197Q765.2571119590586 422.8459884012285 761.7341474216078 422.8459884012285ZM728.7748569712325 505.8313752834083L728.7748569712325 505.8313752834083L728.7161408956083 431.10538303903036Q728.7161408956083 428.6197358376066 730.3993350635016 427.83685482928416Q732.0825292313948 427.0539738209617 735.6054937688459 427.0539738209617L735.6054937688459 427.0539738209617Q739.4416107096258 427.0539738209617 740.9878007010627 427.83685482928416Q742.5535627177076 428.6197358376066 742.5535627177076 431.10538303903036L742.5535627177076 431.10538303903036L742.5535627177076 498.53100988080143Q742.5535627177076 501.4863856872187 741.1639489279353 503.1500078299039L741.1639489279353 503.1500078299039Q739.3828946340017 505.2833585775826 736.2513706007119 507.0448408463081Q733.1198465674221 508.78675108982554 731.201788097032 508.78675108982554L731.201788097032 508.78675108982554Q728.7748569712325 508.78675108982554 728.7748569712325 505.8313752834083ZM809.6268931057336 435.50908871084414L809.6268931057336 435.50908871084414Q825.3236573225988 435.50908871084414 832.7218828512459 444.7666566342571Q840.120108379893 454.0242245576701 840.120108379893 472.05005977429454L840.120108379893 472.05005977429454Q840.120108379893 477.628086958592 838.7109225649126 483.98899515121195Q837.3017367499322 490.34990334383184 834.8943776493406 495.30162572147134L834.8943776493406 495.30162572147134Q832.2717262714605 500.5273564520237 828.4943254063046 504.18732516593116Q824.6973525159408 507.82772185463057 822.3682815161815 507.82772185463057L822.3682815161815 507.82772185463057Q820.9199516507849 507.82772185463057 820.9199516507849 506.5163961656905L820.9199516507849 506.5163961656905Q820.9199516507849 506.10538363632116 821.4092522809865 505.42036275403905Q821.8789808859799 504.7353418717569 822.7010059447186 503.3261560567765Q823.5230310034572 501.9169702417961 824.1493358101152 500.05762784703023L824.1493358101152 500.05762784703023Q826.9677074400759 492.3462499150541 826.9677074400759 478.23481974004187L826.9677074400759 478.23481974004187Q826.9677074400759 470.4647257324416 825.9108180788405 464.71055032127157Q824.8343566923973 458.9759469353096 822.3878535413896 454.49395316266356Q819.96092241559 450.0315314152256 815.6159328194003 447.72203244067435Q811.2905152484188 445.41253346612314 805.0274671818393 445.41253346612314L805.0274671818393 445.41253346612314Q796.3570600146681 445.41253346612314 787.1386361416712 451.75386963353503L787.1386361416712 451.75386963353503Q786.7863396879261 452.02787798644783 786.101318805644 452.47803456623325Q785.4162979233618 452.9086191208106 785.0248574192005 453.2021994989315Q784.6529889402475 453.4762078518444 784.2419764108781 453.671928103925Q783.8309638815089 453.8872203812137 783.5569555285961 453.8872203812137L783.5569555285961 453.8872203812137Q782.597926293401 453.8872203812137 782.597926293401 452.71289886873L782.597926293401 452.71289886873Q782.597926293401 451.94958988561564 783.3808073017235 450.5012600202191Q784.183260335254 449.0725021800306 784.7312770410797 448.3679092725404L784.7312770410797 448.3679092725404Q794.7717259728151 435.50908871084414 809.6268931057336 435.50908871084414ZM792.8536675024251 470.1124292786965L792.8536675024251 470.1124292786965Q792.8536675024251 474.9271474798795 793.0493877545057 478.37182391649833Q793.2646800317943 481.81650035311714 793.8322687628281 485.53518514264874Q794.41942951907 489.2538699321804 795.6328950819698 491.71994510839613Q796.8267886196616 494.2055923098199 798.6665589892193 496.2606549566664Q800.4867573335689 498.33528962872083 803.3051289635298 499.33346291433196Q806.1235005934907 500.3316361999431 809.9009014586466 500.3316361999431L809.9009014586466 500.3316361999431Q813.1498576431845 500.3316361999431 815.5767887689842 499.43132304037226Q818.0232919199918 498.53100988080143 818.375588373737 498.53100988080143L818.375588373737 498.53100988080143Q819.8239182391335 498.53100988080143 819.8239182391335 500.05762784703023L819.8239182391335 500.05762784703023Q819.8239182391335 503.1500078299039 815.3810685169037 506.69254439256304Q810.9382187946737 510.2350809552221 804.4794504760134 510.2350809552221L804.4794504760134 510.2350809552221Q798.4904107623468 510.2350809552221 794.0475610401168 508.2387343839998Q789.604711317887 506.24238781277757 786.9233438643826 503.01300365344747Q784.2419764108781 499.7836194941174 782.617498318609 494.890613192102Q781.0125922515481 489.99760689008673 780.4645755457223 485.04588451244723Q779.9165588398967 480.09416213480773 779.9165588398967 473.8311140682281L779.9165588398967 473.8311140682281Q779.9165588398967 470.32772155598514 780.6015797221787 466.432888539581Q781.2866006044609 462.55762754838486 782.4609221169446 460.48299287633034L782.4609221169446 460.48299287633034Q783.889679957133 458.0169177001146 787.0994920912551 455.9422830280601Q790.289732200169 453.8872203812137 792.5600871243041 453.8872203812137L792.5600871243041 453.8872203812137Q794.2824253426136 453.8872203812137 794.2824253426136 455.9422830280601L794.2824253426136 455.9422830280601Q794.2824253426136 456.2945794818052 793.5582604099153 461.2463018594447Q792.8536675024251 466.19802423708427 792.8536675024251 470.1124292786965ZM855.0535636136437 505.8313752834083L855.0535636136437 505.8313752834083L855.0535636136437 471.14974661472377Q855.0535636136437 467.29405764873565 856.9129060084097 465.23899500188924L856.9129060084097 465.23899500188924Q858.7526763779674 463.1056442542106 861.3166116802236 461.344161985485Q863.8609749572715 459.5826797167595 865.2897327974599 459.5826797167595L865.2897327974599 459.5826797167595Q867.4230835451385 459.5826797167595 867.4230835451385 462.55762754838486L867.4230835451385 462.55762754838486L867.4230835451385 500.11634392265444Q867.4230835451385 503.9133168130183 864.056695209352 506.3402479388179Q860.6903068735655 508.78675108982554 857.4609227142355 508.78675108982554L857.4609227142355 508.78675108982554Q855.0535636136437 508.78675108982554 855.0535636136437 505.8313752834083ZM884.6268937030245 435.50908871084414L884.6268937030245 435.50908871084414Q888.5608707698448 435.50908871084414 892.8471442904101 437.23142692915354Q897.1529898361837 438.95376514746295 897.1529898361837 441.69384867659153L897.1529898361837 441.69384867659153Q897.1529898361837 443.90548752510244 894.2759021305988 446.27370257527787Q891.3792423998057 448.6419176254533 889.1676035512946 448.6419176254533L889.1676035512946 448.6419176254533Q887.3082611565289 448.6419176254533 883.9418728207422 446.93915143235193L883.9418728207422 446.93915143235193Q880.7712047370364 445.41253346612314 878.1681253843642 445.41253346612314L878.1681253843642 445.41253346612314Q876.5240752668872 445.41253346612314 874.9974573006584 445.9409781467408Q873.4904113596376 446.4498508021504 871.4940647884152 447.93732471796307Q869.4977182171931 449.40522660856766 868.2255365786691 450.48168799501104Q866.9533549401451 451.5385773562463 863.8805469824795 454.39609303662326Q860.827311050022 457.25360871700025 859.1049728317125 458.76065465802094L859.1049728317125 458.76065465802094Q857.5979268906917 460.071980346961 856.5606095546646 460.071980346961L856.5606095546646 460.071980346961Q855.0535636136437 460.071980346961 855.0535636136437 457.52761706991305L855.0535636136437 457.52761706991305L855.0535636136437 444.1794958780153Q855.0535636136437 440.46081108848364 858.4590959998466 437.9947359122679Q861.8646283860492 435.50908871084414 865.015724444547 435.50908871084414L865.015724444547 435.50908871084414Q867.4230835451385 435.50908871084414 867.4230835451385 438.4644645172614L867.4230835451385 438.4644645172614L867.4230835451385 442.32015348324944Q867.4230835451385 444.5317923317604 868.4016848055417 444.5317923317604L868.4016848055417 444.5317923317604Q869.145421763448 444.5317923317604 870.8090439061332 442.86817018907516L870.8090439061332 442.86817018907516Q878.1681253843642 435.50908871084414 884.6268937030245 435.50908871084414ZM921.246152867307 435.50908871084414L921.246152867307 435.50908871084414Q921.246152867307 436.1353935175021 920.561131985025 439.8149342566176Q919.8565390775348 443.4944749957331 919.1715181952525 449.54223078502406Q918.4864973129704 455.6095585995231 918.4864973129704 462.00961084255914L918.4864973129704 462.00961084255914Q918.4864973129704 466.11973613625196 918.7213616154672 469.70141674932717Q918.975797943172 473.2830973624024 919.621674775038 477.1387863283905Q920.2675516069041 480.99447529437856 921.3048689429313 484.08685527725225Q922.3421862789585 487.1792352601259 924.103668547684 490.0367509405028Q925.8455787912014 492.8942666208798 928.1550777657528 494.7927530660618Q930.464576740304 496.67166748603563 933.7722490004662 497.80684494810316Q937.0603492354205 498.94202241017075 941.1313304786975 498.94202241017075L941.1313304786975 498.94202241017075Q945.2610277975982 498.94202241017075 948.5882720829686 498.080853301016Q951.9350883935472 497.2392562170694 953.814002813521 496.3976591331228Q955.712489258703 495.5756340743842 956.3387940653611 495.5756340743842L956.3387940653611 495.5756340743842Q957.9241281072138 495.5756340743842 957.9241281072138 497.2392562170694Q957.9241281072138 498.88330633454655 956.4953702670255 501.05580113264136Q955.086184452045 503.2087239055281 952.5809652254131 505.3225026279987Q950.0757459987815 507.41670932526125 946.0047647555045 508.8258951402417Q941.953355537436 510.2350809552221 937.3343575883334 510.2350809552221L937.3343575883334 510.2350809552221Q928.3312259926254 510.2350809552221 921.8528856487571 507.005696795892Q915.3941173300968 503.7763126365619 911.5775724145249 497.51326456998225Q907.7610274989529 491.25021650340267 905.9604011798112 482.8929617395605Q904.1793468858777 474.51613495051026 904.1793468858777 463.4383686827476L904.1793468858777 463.4383686827476Q904.1793468858777 453.75021620475724 905.0405159950324 449.0333581296145Q905.901685104187 444.3165000544717 907.6240233224964 441.00882779430935L907.6240233224964 441.00882779430935Q909.5420817928864 437.42714718123415 913.1237624059615 435.1959363075152Q916.7054430190369 432.96472543379616 919.1128021196284 432.96472543379616L919.1128021196284 432.96472543379616Q921.246152867307 432.96472543379616 921.246152867307 435.50908871084414ZM981.5867065837601 457.1166045405438L981.5867065837601 457.1166045405438Q981.5867065837601 467.9203624553936 979.6295040629539 477.0409262023502Q977.6527295169396 486.1614899493067 973.1120196686695 496.53466330957923L973.1120196686695 496.53466330957923Q972.1529904334745 498.4722938051773 972.1529904334745 499.5096111412045L972.1529904334745 499.5096111412045Q972.1529904334745 501.29066543513807 973.6796083997033 502.6019911240782L973.6796083997033 502.6019911240782L983.6417692306065 512.2901436020685Q986.3231366841108 514.991083080781 986.3231366841108 516.5568450974258L986.3231366841108 516.5568450974258Q986.3231366841108 518.5531916686482 983.2699007516533 522.0761562060992Q980.2166648191958 525.5795487183422 977.1830009119462 525.5795487183422L977.1830009119462 525.5795487183422Q975.7346710465497 525.5795487183422 973.8166125761597 523.5832021471199L973.8166125761597 523.5832021471199L960.1161949305167 509.19776361919486Q958.7461531659526 507.82772185463057 958.7461531659526 506.24238781277757L958.7461531659526 506.24238781277757Q958.7461531659526 505.55736693049545 959.1571656953217 504.7353418717569Q959.5681782246911 503.9133168130183 960.6054955607183 502.1126904938767Q961.6232408715375 500.3316361999431 962.5235540311082 498.39400570434503L962.5235540311082 498.39400570434503Q967.2795561566672 488.0012603188645 967.2795561566672 468.95767979142084L967.2795561566672 468.95767979142084Q967.2795561566672 463.242648430667 967.1034079297947 458.9759469353096Q966.9272597029221 454.70924543995227 966.203094770224 449.40522660856766Q965.4789298375256 444.10120777718305 964.2850362998338 440.26509083640303Q963.0715707369341 436.40940187041497 960.8403598632151 432.5145688540108Q958.6091489894961 428.6197358376066 955.4971969814144 426.19280471180696Q952.4048169985406 423.7463015607993 947.8249630998544 422.21968359457054Q943.2646812263761 420.71263765354985 937.4713617647899 420.71263765354985L937.4713617647899 420.71263765354985Q935.905599748145 420.71263765354985 933.9092531769227 420.98664600646265Q931.9129066057005 421.26065435937556 928.566090295122 422.0826794181141Q925.2388460097516 422.92427650206076 921.207008816891 424.9401950984911Q917.1751716240303 426.97568572012943 913.3977707588745 430.0093496273789L913.3977707588745 430.0093496273789Q913.0454743051293 430.2833579802918 912.301737347223 430.8705187365336Q911.5384283641088 431.45767949277547 911.1861319103637 431.7316878456883Q910.8534074818265 432.0056961986012 910.3053907760009 432.37756467755435Q909.757374070175 432.7494331565075 909.3659335660138 432.92558138338006Q908.9940650870608 433.1017296102526 908.7200567341479 433.1017296102526L908.7200567341479 433.1017296102526Q907.2717268687513 433.1017296102526 907.2717268687513 431.7316878456883L907.2717268687513 431.7316878456883Q907.2717268687513 429.6570531736338 910.2271026751687 425.80136420764575L910.2271026751687 425.80136420764575Q916.2944304896675 417.89426602358895 925.1214138585033 413.8037127551042Q933.9679692525469 409.71315948661936 943.2646812263761 409.71315948661936L943.2646812263761 409.71315948661936Q981.5867065837601 409.71315948661936 981.5867065837601 457.1166045405438ZM1023.0011119240178 510.2350809552221L1023.0011119240178 510.2350809552221Q1017.2273644876395 510.2350809552221 1013.0585231183227 508.74760703940944Q1008.9092537742135 507.27970514880485 1006.2866023963334 503.8741727626022Q1003.6639510184532 500.46864037639955 1002.4309134303453 495.0276173685585Q1001.1978758422374 489.5865943607174 1001.1978758422374 481.6012080758285L1001.1978758422374 481.6012080758285L1001.1978758422374 444.23821195363945Q1001.1978758422374 442.3984415840817 1002.1960491278485 440.77396349181265Q1003.1942224134596 439.14948539954355 1004.6621243040643 437.9947359122679Q1006.1495982198769 436.8204143997842 1007.9110804886025 436.15496554271016Q1009.6529907321199 435.50908871084414 1011.1796086983486 435.50908871084414L1011.1796086983486 435.50908871084414Q1013.5869677989401 435.50908871084414 1013.5869677989401 438.4644645172614L1013.5869677989401 438.4644645172614L1013.5869677989401 480.3681704877206L1013.860976151853 485.6721893191052Q1014.134984504766 489.5865943607174 1014.9570095635045 492.3853939654702Q1015.779034622243 495.16462154501494 1017.4426567649282 496.92610381374044Q1019.0867068824055 498.6680140572579 1021.5919261090373 499.5096111412045Q1024.1167173608771 500.3316361999431 1027.6788259487444 500.3316361999431L1027.6788259487444 500.3316361999431Q1033.3938573094983 500.3316361999431 1038.071571334225 497.65026874643866L1038.071571334225 497.65026874643866Q1039.382897023165 496.8869597633243 1039.7939095525344 496.8869597633243L1039.7939095525344 496.8869597633243Q1040.4202143591922 496.8869597633243 1040.655078661689 497.37626039352585Q1040.8899429641858 497.8459889985193 1040.8899429641858 499.43132304037226L1040.8899429641858 499.43132304037226Q1040.8899429641858 502.32798277116535 1038.8935963929634 504.34390136759566Q1036.8972498217413 506.379391989234 1034.0788781917804 507.6907176781741Q1031.2605065618195 509.0020433671142 1028.207270629362 509.6087761485641Q1025.1344626716964 510.2350809552221 1023.0011119240178 510.2350809552221ZM1056.7824274331315 438.4644645172614L1056.7824274331315 438.4644645172614L1056.7824274331315 500.11634392265444Q1056.7824274331315 503.83502871218604 1053.376895046929 506.3206759136099Q1049.971362660726 508.78675108982554 1046.8202666022282 508.78675108982554L1046.8202666022282 508.78675108982554Q1044.4129075016367 508.78675108982554 1044.4129075016367 505.8313752834083L1044.4129075016367 505.8313752834083L1044.4129075016367 444.1794958780153Q1044.4129075016367 440.5978152649401 1047.8380119130475 438.0534519878921Q1051.2826883496664 435.50908871084414 1054.37506833254 435.50908871084414L1054.37506833254 435.50908871084414Q1056.7824274331315 435.50908871084414 1056.7824274331315 438.4644645172614ZM1101.034776428558 435.50908871084414L1101.034776428558 435.50908871084414Q1106.808523864936 435.50908871084414 1111.4275218140385 437.01613465186483Q1116.026947737933 438.54275261809363 1119.197615821639 441.869996903464Q1122.368283905345 445.21681321404253 1124.051478073238 450.48168799501104Q1125.7346722411314 455.7465627759795 1125.7346722411314 463.1643603298347L1125.7346722411314 463.1643603298347L1125.7346722411314 500.46864037639955Q1125.7346722411314 502.1909785947089 1124.677782879896 503.69802453572964Q1123.6013214934526 505.20507047675034 1122.055131502016 506.3402479388179Q1120.508941510579 507.47542540088546 1118.7474592418534 508.1408742579595Q1117.005548998336 508.78675108982554 1115.694223309396 508.78675108982554L1115.694223309396 508.78675108982554Q1113.2868642088044 508.78675108982554 1113.2868642088044 505.8313752834083L1113.2868642088044 505.8313752834083L1113.2868642088044 465.7087236068827Q1113.2868642088044 445.41253346612314 1097.17908746257 445.41253346612314L1097.17908746257 445.41253346612314Q1087.8236594131167 445.41253346612314 1080.1905695819728 450.57954812105135L1080.1905695819728 450.57954812105135Q1077.1569056747232 452.57589469227355 1076.2565925151525 452.57589469227355L1076.2565925151525 452.57589469227355Q1075.2388472043333 452.57589469227355 1075.2388472043333 451.4798612806221L1075.2388472043333 451.4798612806221Q1075.2388472043333 449.54223078502406 1077.372197952012 446.93915143235193L1077.372197952012 446.93915143235193Q1086.7276260014653 435.50908871084414 1101.034776428558 435.50908871084414ZM1108.061133478252 504.24604124155536L1108.061133478252 504.24604124155536Q1105.164473747459 506.86869261943554 1100.8977722521017 508.55188678732884Q1096.6310707567443 510.2350809552221 1092.716665715132 510.2350809552221L1092.716665715132 510.2350809552221Q1083.5569579177593 510.2350809552221 1078.7030956661602 505.3812187036229Q1073.849233414561 500.5273564520237 1073.849233414561 493.44228332670554L1073.849233414561 493.44228332670554Q1073.849233414561 488.3535567726096 1077.372197952012 485.6721893191052L1077.372197952012 485.6721893191052Q1080.5232940105097 483.18654211768137 1082.8719370354772 483.18654211768137L1082.8719370354772 483.18654211768137Q1083.6352460185915 483.18654211768137 1084.1832627244173 483.73455882350714Q1084.731279430243 484.3021475545409 1084.731279430243 485.39818096619234L1084.731279430243 485.39818096619234Q1084.731279430243 493.2465630746249 1087.4126468837474 496.789099637284Q1090.0940143372518 500.3316361999431 1096.9833672104894 500.3316361999431L1096.9833672104894 500.3316361999431Q1099.0384298573358 500.3316361999431 1101.993805663753 499.6074712672448Q1104.9491814701703 498.88330633454655 1107.0238161422249 497.65026874643866L1107.0238161422249 497.65026874643866Q1108.2568537303325 496.8869597633243 1108.8831585369905 496.8869597633243L1108.8831585369905 496.8869597633243Q1109.8421877721855 496.8869597633243 1109.8421877721855 499.43132304037226L1109.8421877721855 499.43132304037226Q1109.8421877721855 502.6019911240782 1108.061133478252 504.24604124155536ZM1107.4935447472183 467.09833739665504L1107.4935447472183 467.09833739665504Q1108.8048704361584 467.78335827893716 1109.29417106636 468.91853574100475Q1109.7638996713533 470.0537132030723 1109.7638996713533 473.146093185946L1109.7638996713533 473.146093185946Q1109.7638996713533 475.9057487402826 1109.333315116776 477.09964227797434Q1108.8831585369905 478.3131078408742 1107.708837024507 478.3131078408742L1107.708837024507 478.3131078408742Q1106.9455280413927 478.3131078408742 1105.575486276828 477.6868030342162L1105.575486276828 477.6868030342162Q1099.116717958168 474.8684314042554 1093.8714152024077 474.8684314042554L1093.8714152024077 474.8684314042554Q1085.4163003125252 474.8684314042554 1077.7832104813813 480.99447529437856L1077.7832104813813 480.99447529437856Q1075.3758513807898 482.91253376476857 1074.534254296843 482.91253376476857L1074.534254296843 482.91253376476857Q1073.4382208851916 482.91253376476857 1073.4382208851916 481.6794961766607L1073.4382208851916 481.6794961766607Q1073.4382208851916 479.76143770627067 1074.827834674964 477.49108278213555L1074.827834674964 477.49108278213555Q1078.4682313636633 471.3650388920124 1084.418127026914 468.1552267578904Q1090.3680226901647 464.9649866489764 1097.6683880927715 464.9649866489764L1097.6683880927715 464.9649866489764Q1103.246415277069 464.9649866489764 1107.4935447472183 467.09833739665504ZM1142.586185945272 505.8313752834083L1142.586185945272 505.8313752834083L1142.586185945272 411.00491315035146Q1142.586185945272 407.30580038602784 1145.9721463062667 404.85929723502016Q1149.3385346420532 402.41279408401255 1152.5679188013835 402.41279408401255L1152.5679188013835 402.41279408401255Q1154.975277901975 402.41279408401255 1154.975277901975 405.3681698904298L1154.975277901975 405.3681698904298L1154.975277901975 500.19463202348663Q1154.975277901975 503.9720328886425 1151.6088895661885 506.379391989234Q1148.2425012304018 508.78675108982554 1144.9935450458636 508.78675108982554L1144.9935450458636 508.78675108982554Q1142.586185945272 508.78675108982554 1142.586185945272 505.8313752834083ZM1184.2941716636506 438.4644645172614L1184.2941716636506 438.4644645172614L1184.2941716636506 499.92062367057383Q1184.2941716636506 502.52370302324596 1183.061134075543 504.18732516593116L1183.061134075543 504.18732516593116Q1181.2605077564012 506.24238781277757 1178.8140046053936 507.51456945130155Q1176.387073479594 508.78675108982554 1174.3124388075394 508.78675108982554L1174.3124388075394 508.78675108982554Q1171.9050797069478 508.78675108982554 1171.9050797069478 505.8313752834083L1171.9050797069478 505.8313752834083L1171.9050797069478 444.39478815530396Q1171.9050797069478 441.7721367774237 1173.1381172950557 440.1868027355708L1173.1381172950557 440.1868027355708Q1174.9387436141974 438.13174008872437 1177.385246765205 436.8204143997842Q1179.8121778910047 435.50908871084414 1181.8868125630593 435.50908871084414L1181.8868125630593 435.50908871084414Q1184.2941716636506 435.50908871084414 1184.2941716636506 438.4644645172614ZM1184.2941716636506 402.6280863613012L1184.2941716636506 402.6280863613012L1184.2941716636506 412.5902471922044Q1184.2941716636506 415.21289857008463 1183.061134075543 416.8569486875618L1183.061134075543 416.8569486875618Q1181.2605077564012 418.93158335961624 1178.8140046053936 420.20376499814023Q1176.387073479594 421.4759466366642 1174.3124388075394 421.4759466366642L1174.3124388075394 421.4759466366642Q1171.9050797069478 421.4759466366642 1171.9050797069478 418.520570830247L1171.9050797069478 418.520570830247L1171.9050797069478 408.5388379741357Q1171.9050797069478 405.8574705206313 1173.1381172950557 404.3308525544025L1173.1381172950557 404.3308525544025Q1174.9387436141974 402.2757899075561 1177.385246765205 400.964464218616Q1179.8121778910047 399.6531385296759 1181.8868125630593 399.6531385296759L1181.8868125630593 399.6531385296759Q1184.2941716636506 399.6531385296759 1184.2941716636506 402.6280863613012ZM1220.0718337439866 454.84624961640867L1220.0718337439866 454.84624961640867L1220.0718337439866 478.91984062232405Q1220.0718337439866 484.8501642603666 1220.756854626269 488.94071752885145Q1221.441875508551 493.0312707973362 1222.7923452479072 495.5756340743842Q1224.1232429620554 498.1199973514322 1226.1587335836937 499.2160307630836Q1228.1942242053321 500.3316361999431 1230.9538797596688 500.3316361999431L1230.9538797596688 500.3316361999431Q1234.1832639189988 500.3316361999431 1236.3361866918856 499.52918316641257Q1238.5086814899803 498.7463021580901 1239.957011355377 497.80684494810316Q1241.4053412207736 496.8869597633243 1242.3643704559684 496.10407875500186Q1243.3233996911636 495.30162572147134 1244.3020009515665 495.30162572147134L1244.3020009515665 495.30162572147134Q1245.1827420859292 495.30162572147134 1245.5937546152986 495.8104983768809Q1246.004767144668 496.33894305749857 1246.004767144668 497.16096811623714L1246.004767144668 497.16096811623714Q1246.004767144668 498.33528962872083 1245.0848819598891 500.50778442681565Q1244.1649967751102 502.66070719970236 1241.9533579265992 504.8332019977972Q1239.7612911032963 507.005696795892 1236.1404664398049 508.610602862953Q1232.5196417763136 510.2350809552221 1227.0981907936807 510.2350809552221L1227.0981907936807 510.2350809552221Q1221.794171962296 510.2350809552221 1218.1146312231806 508.7280350142014Q1214.435090484065 507.2014170479726 1212.0864474590978 503.79588466176995Q1209.7573764593385 500.39035227556724 1208.720059123311 494.9297572425182Q1207.682741787284 489.449590184261 1207.682741787284 481.464203899372L1207.682741787284 481.464203899372L1207.682741787284 454.84624961640867Q1207.682741787284 453.339203675388 1208.348190644358 452.53675064185745Q1208.994067476224 451.75386963353503 1209.992240761835 451.4015731797899Q1210.9904140474462 451.06884875125286 1212.0473034086817 451.06884875125286Q1213.123764795125 451.06884875125286 1213.9457898538635 451.06884875125286L1213.9457898538635 451.06884875125286Q1215.1788274419714 451.06884875125286 1216.314004904039 451.16670887729316Q1217.4491823661065 451.26456900333346 1218.2907794500532 451.6364374822866Q1219.1128045087917 452.02787798644783 1219.582533113785 452.77161494435416Q1220.0718337439866 453.5349239274686 1220.0718337439866 454.84624961640867ZM1204.1010611742088 439.9127943826579L1204.1010611742088 439.9127943826579L1204.1010611742088 443.8271994242702Q1204.1010611742088 445.5495376425796 1203.3573242163022 446.5281389029826Q1202.594015233188 447.48716813817765 1200.4606644855094 447.48716813817765L1200.4606644855094 447.48716813817765L1197.2312803261793 447.48716813817765Q1194.8239212255876 447.48716813817765 1194.8239212255876 445.96055017194885L1194.8239212255876 445.96055017194885Q1194.8239212255876 444.10120777718305 1197.818441082421 440.87182361785295Q1200.8129609392545 437.6424394585228 1202.594015233188 437.6424394585228L1202.594015233188 437.6424394585228Q1204.1010611742088 437.6424394585228 1204.1010611742088 439.9127943826579ZM1220.0718337439866 425.11634332536363L1220.0718337439866 425.11634332536363L1220.0718337439866 434.00204276982345Q1220.0718337439866 436.1353935175021 1221.0308629791816 436.87913047540843Q1221.9898922143768 437.6424394585228 1223.712230432686 437.6424394585228L1223.712230432686 437.6424394585228L1242.1686502038879 437.6424394585228Q1244.5760093044794 437.6424394585228 1244.5760093044794 439.2277735003758L1244.5760093044794 439.2277735003758Q1244.5760093044794 440.87182361785295 1242.2665103299282 443.3574708192767Q1239.957011355377 445.82354599549245 1237.6866564312418 446.6651430794391L1237.6866564312418 446.6651430794391Q1235.494589607939 447.48716813817765 1229.779558247185 447.48716813817765L1229.779558247185 447.48716813817765L1211.3427105011915 447.48716813817765Q1209.620372282882 447.48716813817765 1208.641771022479 446.7238591550632Q1207.682741787284 445.96055017194885 1207.682741787284 443.8271994242702L1207.682741787284 443.8271994242702L1207.682741787284 430.8313746861175Q1207.682741787284 427.0539738209617 1211.0491301230704 424.607470669954Q1214.435090484065 422.1609675189464 1217.6644746433951 422.1609675189464L1217.6644746433951 422.1609675189464Q1220.0718337439866 422.1609675189464 1220.0718337439866 425.11634332536363ZM1277.672303931311 510.2350809552221L1277.672303931311 510.2350809552221Q1271.8789844697249 510.2350809552221 1267.729715125616 508.74760703940944Q1263.5608737562989 507.27970514880485 1260.9382223784187 503.8741727626022Q1258.3351430257464 500.46864037639955 1257.0825334124306 495.0276173685585Q1255.8494958243227 489.5865943607174 1255.8494958243227 481.6012080758285L1255.8494958243227 481.6012080758285L1255.8494958243227 444.23821195363945Q1255.8494958243227 442.3984415840817 1256.8476691099338 440.77396349181265Q1257.845842395545 439.14948539954355 1259.3333163113575 437.9947359122679Q1260.8012182019622 436.8204143997842 1262.5627004706876 436.15496554271016Q1264.3241827394131 435.50908871084414 1265.831228680434 435.50908871084414L1265.831228680434 435.50908871084414Q1268.2385877810254 435.50908871084414 1268.2385877810254 438.4644645172614L1268.2385877810254 438.4644645172614L1268.2385877810254 477.2757905048469L1268.4538800583143 483.3235462941378Q1268.5125961339384 485.3198928653601 1268.6496003103948 486.53335842825993Q1268.7866044868513 487.7272519659516 1269.00189676414 488.7058532263547Q1269.1976170162204 489.6648824615497 1269.4324813187172 490.5651956211205Q1269.686917646422 491.4459367554833 1270.0979301757914 492.8355505452556L1270.0979301757914 492.8355505452556Q1271.272251688275 496.9456758389485 1274.5603519232293 498.64844203204984Q1277.8680241833918 500.3316361999431 1282.8980346618634 500.3316361999431L1282.8980346618634 500.3316361999431Q1288.0454772915834 500.3316361999431 1292.7427633415182 497.65026874643866L1292.7427633415182 497.65026874643866Q1294.0345170052503 496.8869597633243 1294.523817635452 496.8869597633243L1294.523817635452 496.8869597633243Q1295.561134971479 496.8869597633243 1295.561134971479 499.43132304037226L1295.561134971479 499.43132304037226Q1295.561134971479 502.2496946703331 1293.5647884002567 504.28518529197146Q1291.5684418290346 506.3206759136099 1288.7500701990737 507.6124295773419Q1285.9121265439048 508.923755266282 1282.8588906114471 509.58920412335607Q1279.8056546789896 510.2350809552221 1277.672303931311 510.2350809552221ZM1311.3753313395925 438.4644645172614L1311.3753313395925 438.4644645172614L1311.3753313395925 522.0761562060992Q1311.3753313395925 527.2235988358193 1310.0640056506525 531.607732482425Q1308.7722519869203 535.9722941038226 1306.7954774409063 538.6928056077431Q1304.8382749201 541.4133171116637 1302.5092039203407 543.3313755820537Q1300.1605608953735 545.2494340524437 1298.2816464753996 546.0518870859742Q1296.3831600302176 546.8347680942967 1295.0131182656532 546.8347680942967L1295.0131182656532 546.8347680942967Q1293.8975128287939 546.8347680942967 1293.8975128287939 545.8757388591017L1293.8975128287939 545.8757388591017Q1293.8975128287939 545.2494340524437 1295.0131182656532 543.742388111423L1295.0131182656532 543.742388111423Q1297.3421892654126 540.5130039520928 1298.2033583745674 535.5808535996614Q1299.064527483722 530.668275272438 1299.064527483722 522.350164559012L1299.064527483722 522.350164559012L1298.9275233072656 444.39478815530396Q1298.9275233072656 441.69384867659153 1300.2388489962057 440.1868027355708L1300.2388489962057 440.1868027355708Q1302.0199032901392 438.13174008872437 1304.4664064411468 436.8204143997842Q1306.9129095921546 435.50908871084414 1308.967972239001 435.50908871084414L1308.967972239001 435.50908871084414Q1311.3753313395925 435.50908871084414 1311.3753313395925 438.4644645172614ZM1270.9199552345299 536.3050185323598L1270.9199552345299 536.3050185323598Q1273.4056024359536 538.1643609271255 1275.5389531836324 538.966813960656Q1277.672303931311 539.7496949689785 1280.7646839141846 539.7496949689785L1280.7646839141846 539.7496949689785Q1283.5047674433133 539.7496949689785 1287.0473040059724 539.0059580110722Q1290.6094125938396 538.2426490279578 1290.80513284592 538.2426490279578L1290.80513284592 538.2426490279578Q1292.6057591650617 538.2426490279578 1292.6057591650617 539.9649872462671L1292.6057591650617 539.9649872462671Q1292.6057591650617 543.116083304765 1287.223452232845 546.3846115145113Q1281.860717325836 549.6531397242575 1275.675957360089 549.6531397242575L1275.675957360089 549.6531397242575Q1269.6086295455898 549.6531397242575 1264.2067505881648 547.1087764472095Q1258.80487163074 544.5644131701615 1258.80487163074 542.0983379939458Q1258.80487163074 539.612690792522 1261.6232432607007 537.4206239692192L1261.6232432607007 537.4206239692192Q1264.872199445239 534.7392565157148 1266.9272620920854 534.7392565157148Q1269.00189676414 534.7392565157148 1270.9199552345299 536.3050185323598ZM1373.5752274508113 435.783097063757L1373.5752274508113 435.783097063757Q1373.5752274508113 436.8204143997842 1372.831490492905 440.3238069120272Q1372.0681815097907 443.8271994242702 1371.285300501468 449.6205188858563Q1370.4828474679377 455.3942663222344 1370.4828474679377 461.85303464089463L1370.4828474679377 461.85303464089463Q1370.4828474679377 466.8830451193664 1370.893859997307 471.0518864886834Q1371.304872526676 475.2207278580005 1372.3030458122873 479.5852894793981Q1373.3012190978986 483.9498511007958 1375.1997055430804 487.25752336095815Q1377.0981919882624 490.5651956211205 1379.838275517391 493.2074190242088Q1382.5979310717278 495.84964242729706 1386.7276283906285 497.25882824227745Q1390.8573257095293 498.6680140572579 1396.1613445409141 498.6680140572579L1396.1613445409141 498.6680140572579Q1401.0347788177212 498.6680140572579 1405.3014803130786 497.57198064560646Q1409.568181808436 496.475947233955 1411.7993926821548 495.1254774945988Q1414.0501755810822 493.7945797804506 1415.9290900010558 492.6789743435911Q1417.827576446238 491.5829409319397 1418.5908854293523 491.5829409319397L1418.5908854293523 491.5829409319397Q1420.2349355468293 491.5829409319397 1420.2349355468293 493.3052791502491L1420.2349355468293 493.3052791502491Q1420.2349355468293 494.3425964862763 1419.3737664376747 496.20193888104217Q1418.51259732852 498.06128127580797 1416.3205305052172 500.5273564520237Q1414.1088916567062 503.01300365344747 1410.9773676234165 505.14635440112613Q1407.8458435901266 507.27970514880485 1402.541824758742 508.74760703940944Q1397.2573779525655 510.2350809552221 1390.9160417851538 510.2350809552221L1390.9160417851538 510.2350809552221Q1380.8755928534183 510.2350809552221 1373.9862399801807 507.2014170479726Q1367.116459132151 504.18732516593116 1363.2216261157469 498.1199973514322Q1359.3463651245509 492.07224156214124 1357.7218870322815 484.16514337808445Q1356.0974089400127 476.23847316881967 1356.0974089400127 465.23899500188924L1356.0974089400127 465.23899500188924Q1356.0974089400127 457.44932896908085 1357.0760102004158 451.2058529277093Q1358.0350394356108 444.9428048611297 1359.405081200175 442.2614374076253L1359.405081200175 442.2614374076253Q1361.1274194184844 438.8167609710065 1364.8069601575999 436.2332536435424Q1368.4865008967154 433.64974631607834 1371.520164803965 433.64974631607834L1371.520164803965 433.64974631607834Q1373.5752274508113 433.64974631607834 1373.5752274508113 435.783097063757ZM1418.8648937822652 417.62025767067615L1418.8648937822652 417.62025767067615Q1418.8648937822652 420.43862930063693 1413.7761672281692 424.07902598933634L1413.7761672281692 424.07902598933634Q1411.701532556115 425.80136420764575 1409.0788811782345 425.80136420764575L1409.0788811782345 425.80136420764575Q1408.4721483967846 425.80136420764575 1407.924131690959 425.70350408160544Q1407.3761149851332 425.60564395556514 1406.671522077643 425.35120762786033Q1405.986501195361 425.11634332536363 1405.5754886659915 424.9793391489072Q1405.1644761366222 424.8423349724507 1404.2445909518435 424.43132244308146Q1403.3051337418565 424.0203099137122 1402.894121212487 423.8050176364235L1402.894121212487 423.8050176364235Q1395.5937558098801 420.71263765354985 1389.408995844133 420.71263765354985L1389.408995844133 420.71263765354985Q1377.01990388743 420.71263765354985 1365.3354048382178 431.0270949381981L1365.3354048382178 431.0270949381981Q1364.9831083844726 431.320675316319 1364.2980875021901 431.8686920221447Q1363.613066619908 432.41670872797044 1363.2216261157469 432.72986113129946Q1362.8497576367938 433.02344150942037 1362.3408849813843 433.4148820135816Q1361.8124403007666 433.78675049253474 1361.4405718218134 433.9628987194073Q1361.06870334286 434.13904694627985 1360.7751229647392 434.13904694627985L1360.7751229647392 434.13904694627985Q1359.2093609480944 434.13904694627985 1359.2093609480944 432.41670872797044L1359.2093609480944 432.41670872797044Q1359.2093609480944 430.20506987945953 1362.9084737124178 425.5273558547329L1362.9084737124178 425.5273558547329Q1369.2498098798299 417.6789737463003 1377.5483485680477 413.5688484526075Q1385.8273152310578 409.4391511337065 1397.727106557559 409.4391511337065L1397.727106557559 409.4391511337065Q1406.8868143549316 409.4391511337065 1414.4611881104513 413.13826389803006L1414.4611881104513 413.13826389803006Q1415.7529417741835 413.7645687046881 1416.3401025304254 414.07772110801704Q1416.927263286667 414.390873511346 1417.886292521862 415.40861882216524Q1418.8648937822652 416.44593615819247 1418.8648937822652 417.62025767067615ZM1461.2383283577178 435.50908871084414L1461.2383283577178 435.50908871084414Q1476.9350925745828 435.50908871084414 1484.33331810323 444.7666566342571Q1491.7315436318775 454.0242245576701 1491.7315436318775 472.05005977429454L1491.7315436318775 472.05005977429454Q1491.7315436318775 477.628086958592 1490.3223578168968 483.98899515121195Q1488.9131720019166 490.34990334383184 1486.5058129013248 495.30162572147134L1486.5058129013248 495.30162572147134Q1483.8831615234446 500.5273564520237 1480.1057606582888 504.18732516593116Q1476.308787767925 507.82772185463057 1473.9797167681656 507.82772185463057L1473.9797167681656 507.82772185463057Q1472.5313869027693 507.82772185463057 1472.5313869027693 506.5163961656905L1472.5313869027693 506.5163961656905Q1472.5313869027693 506.10538363632116 1473.0011155077625 505.42036275403905Q1473.4904161379643 504.7353418717569 1474.3124411967028 503.3261560567765Q1475.1344662554413 501.9169702417961 1475.7607710620994 500.05762784703023L1475.7607710620994 500.05762784703023Q1478.57914269206 492.3462499150541 1478.57914269206 478.23481974004187L1478.57914269206 478.23481974004187Q1478.57914269206 470.4647257324416 1477.522253330825 464.71055032127157Q1476.4457919443814 458.9759469353096 1473.9992887933738 454.49395316266356Q1471.5723576675741 450.0315314152256 1467.2273680713845 447.72203244067435Q1462.901950500403 445.41253346612314 1456.6389024338234 445.41253346612314L1456.6389024338234 445.41253346612314Q1447.9684952666523 445.41253346612314 1438.7500713936554 451.75386963353503L1438.7500713936554 451.75386963353503Q1438.3977749399103 452.02787798644783 1437.7127540576282 452.47803456623325Q1437.0277331753462 452.9086191208106 1436.6362926711847 453.2021994989315Q1436.2644241922314 453.4762078518444 1435.8534116628623 453.671928103925Q1435.4423991334932 453.8872203812137 1435.1683907805802 453.8872203812137L1435.1683907805802 453.8872203812137Q1434.2093615453853 453.8872203812137 1434.2093615453853 452.71289886873L1434.2093615453853 452.71289886873Q1434.2093615453853 451.94958988561564 1434.9922425537077 450.5012600202191Q1435.7946955872383 449.0725021800306 1436.3427122930639 448.3679092725404L1436.3427122930639 448.3679092725404Q1446.3831612247993 435.50908871084414 1461.2383283577178 435.50908871084414ZM1444.4455307292012 470.1124292786965L1444.4455307292012 470.1124292786965Q1444.4455307292012 474.9271474798795 1444.66082300649 478.37182391649833Q1444.8761152837785 481.81650035311714 1445.4437040148125 485.53518514264874Q1446.0308647710542 489.2538699321804 1447.244330333954 491.71994510839613Q1448.4382238716457 494.2055923098199 1450.2779942412035 496.2606549566664Q1452.0981925855533 498.33528962872083 1454.9165642155142 499.33346291433196Q1457.7349358454749 500.3316361999431 1461.5123367106305 500.3316361999431L1461.5123367106305 500.3316361999431Q1464.7612928951687 500.3316361999431 1467.1882240209684 499.43132304037226Q1469.6347271719762 498.53100988080143 1469.9870236257211 498.53100988080143L1469.9870236257211 498.53100988080143Q1471.4353534911177 498.53100988080143 1471.4353534911177 500.05762784703023L1471.4353534911177 500.05762784703023Q1471.4353534911177 503.1500078299039 1466.992503768888 506.69254439256304Q1462.549654046658 510.2350809552221 1456.0908857279976 510.2350809552221L1456.0908857279976 510.2350809552221Q1450.1018460143312 510.2350809552221 1445.658996292101 508.2387343839998Q1441.2161465698712 506.24238781277757 1438.5347791163667 503.01300365344747Q1435.8534116628623 499.7836194941174 1434.2289335705934 494.890613192102Q1432.6240275035323 489.99760689008673 1432.0760107977064 485.04588451244723Q1431.5279940918808 480.09416213480773 1431.5279940918808 473.8311140682281L1431.5279940918808 473.8311140682281Q1431.5279940918808 470.32772155598514 1432.213014974163 466.432888539581Q1432.8980358564452 462.55762754838486 1434.0723573689288 460.48299287633034L1434.0723573689288 460.48299287633034Q1435.5011152091172 458.0169177001146 1438.710927343239 455.9422830280601Q1441.9011674521532 453.8872203812137 1444.1715223762883 453.8872203812137L1444.1715223762883 453.8872203812137Q1445.8938605945978 453.8872203812137 1445.8938605945978 455.9422830280601L1445.8938605945978 455.9422830280601Q1445.8938605945978 456.2945794818052 1445.1696956618996 461.2463018594447Q1444.4455307292012 466.19802423708427 1444.4455307292012 470.1124292786965ZM1506.664998865628 505.8313752834083L1506.664998865628 505.8313752834083L1506.664998865628 468.82067561496444Q1506.664998865628 464.9649866489764 1508.5243412603938 462.89035197692186L1508.5243412603938 462.89035197692186Q1510.3641116299516 460.7570012292432 1512.9280469322077 459.0738070613499Q1515.4724102092557 457.39061289345665 1516.9011680494443 457.39061289345665L1516.9011680494443 457.39061289345665Q1519.0345187971227 457.39061289345665 1519.0345187971227 460.3459886998739L1519.0345187971227 460.3459886998739L1519.0345187971227 499.92062367057383Q1519.0345187971227 503.69802453572964 1515.62898641092 506.24238781277757Q1512.2234540247175 508.78675108982554 1509.0723579662197 508.78675108982554L1509.0723579662197 508.78675108982554Q1506.664998865628 508.78675108982554 1506.664998865628 505.8313752834083ZM1522.8314916874867 441.36112424805447L1522.8314916874867 441.36112424805447Q1526.7458967290988 438.4644645172614 1531.0125982244563 436.9965626266568Q1535.2792997198137 435.50908871084414 1538.6456880556 435.50908871084414L1538.6456880556 435.50908871084414Q1550.6237674829338 435.50908871084414 1556.201794667231 442.2222933572092Q1561.7798218515286 448.9354980035742 1561.7798218515286 464.6909782960635L1561.7798218515286 464.6909782960635L1561.7798218515286 499.92062367057383Q1561.7798218515286 503.6197364348974 1558.393861490534 506.20324376236147Q1555.0274731547474 508.78675108982554 1551.7980889954172 508.78675108982554L1551.7980889954172 508.78675108982554Q1549.3907298948259 508.78675108982554 1549.3907298948259 505.8313752834083L1549.3907298948259 505.8313752834083L1549.3907298948259 478.6458322694112Q1549.3907298948259 472.18706395075094 1549.2928697687855 468.8793916905886Q1549.175437617537 465.57171943042624 1548.7252810377518 460.97229350653186Q1548.2946964831742 456.3532955574294 1547.2573791471473 454.1220846837104Q1546.2200618111199 451.89087380999143 1544.4585795423943 449.54223078502406Q1542.716669298877 447.2131597852648 1539.898297668916 446.31284662569396Q1537.0799260389551 445.41253346612314 1533.1459489721349 445.41253346612314L1533.1459489721349 445.41253346612314Q1525.238850788078 445.41253346612314 1511.4797170668112 455.9422830280601L1511.4797170668112 455.9422830280601Q1509.2680782183002 457.6646212463695 1508.0350406301925 457.6646212463695L1508.0350406301925 457.6646212463695Q1506.664998865628 457.6646212463695 1506.664998865628 455.3355502466102L1506.664998865628 455.3355502466102L1506.664998865628 444.39478815530396Q1506.664998865628 440.6761033657723 1510.0705312518307 438.0925960383082Q1513.4760636380336 435.50908871084414 1516.6271596965312 435.50908871084414L1516.6271596965312 435.50908871084414Q1519.0345187971227 435.50908871084414 1519.0345187971227 438.4644645172614L1519.0345187971227 438.4644645172614L1519.0345187971227 440.1868027355708Q1519.0345187971227 442.67244993699455 1520.1501242339823 442.67244993699455L1520.1501242339823 442.67244993699455Q1521.1091534691773 442.67244993699455 1522.8314916874867 441.36112424805447ZM1614.8200101653747 492.4832540915105L1614.8200101653747 492.4832540915105Q1614.8200101653747 485.1241726132795 1610.807744997722 481.95350452957354Q1606.7759078048614 478.7828364458676 1599.2015340493415 478.09781556358547L1599.2015340493415 478.09781556358547Q1592.527473453393 477.49108278213555 1587.71275525221 475.82746063945035Q1582.8980370510267 474.1834105219732 1580.2166695975222 471.8151954717978Q1577.535302144018 469.4274083964143 1576.3218365811179 466.70689689249383Q1575.1279430434265 463.9863853885733 1575.1279430434265 460.83528933007545L1575.1279430434265 460.83528933007545Q1575.1279430434265 457.6059051707453 1578.4160432783808 455.08111391890543Q1581.723715538543 452.57589469227355 1583.994070462678 452.57589469227355L1583.994070462678 452.57589469227355Q1585.579404504531 452.57589469227355 1586.127421210357 454.70924543995227L1586.127421210357 454.70924543995227Q1586.6754379161825 457.03831643971154 1587.2625986724245 458.6236504815645Q1587.8497594286662 460.2089845234175 1588.9262208151094 461.42245008631727Q1589.9831101763448 462.616343624009 1591.0595715627883 463.3405085567073Q1592.1164609240236 464.06467348940555 1594.3476717977426 464.65183424564736Q1596.5984546966695 465.23899500188924 1598.6143732930998 465.57171943042624Q1600.6498639147383 465.92401588417135 1604.4272647798941 466.4133165143729L1604.4272647798941 466.4133165143729Q1610.416304493561 467.15705347227924 1614.6242899132942 469.11425599308535Q1618.8127033078192 471.09103053909956 1620.9460540554978 473.96811824468455Q1623.0794048031764 476.86477797547764 1623.9797179627474 479.95715795835133Q1624.8604590971102 483.04953794122497 1624.8604590971102 486.9835150080453L1624.8604590971102 486.9835150080453Q1624.8604590971102 491.38722067985907 1623.3925572065054 495.39948584751164Q1621.9050832906928 499.43132304037226 1619.7717325430142 501.93654226700414Q1617.6383817953354 504.461333518844 1615.4463149720325 505.9292354094486Q1613.2346761235217 507.41670932526125 1611.5906260060444 507.41670932526125L1611.5906260060444 507.41670932526125Q1610.4945925943932 507.41670932526125 1610.4945925943932 506.379391989234L1610.4945925943932 506.379391989234Q1610.4945925943932 505.9683794598647 1611.5906260060444 504.3243293423876L1611.5906260060444 504.3243293423876Q1614.8200101653747 499.07902658662715 1614.8200101653747 492.4832540915105ZM1619.360720013645 439.50178185328866L1619.360720013645 439.50178185328866Q1621.4940707613237 441.1458319707658 1621.4940707613237 442.73116601261876L1621.4940707613237 442.73116601261876Q1621.4940707613237 444.45350423092816 1618.6365550809467 446.95872345756Q1615.7790394005694 449.4835147093999 1613.4499684008103 449.4835147093999L1613.4499684008103 449.4835147093999Q1612.7649475185283 449.4835147093999 1612.2169308127025 449.30736648252736Q1611.6493420816687 449.1312182556548 1610.5924527204336 448.6810616758694Q1609.51599133399 448.230905096084 1609.0462627289965 448.0939009196276L1609.0462627289965 448.0939009196276Q1602.5679223851284 445.41253346612314 1597.4204797554082 445.41253346612314L1597.4204797554082 445.41253346612314Q1587.71275525221 445.41253346612314 1580.3536737739787 449.8945272387692L1580.3536737739787 449.8945272387692Q1579.8643731437771 450.16853559168203 1579.0032040346225 450.71655229750775Q1578.1420349254677 451.26456900333346 1577.6331622700582 451.5777214066625Q1577.1242896146487 451.89087380999143 1576.7719931609038 451.89087380999143L1576.7719931609038 451.89087380999143Q1575.8129639257083 451.89087380999143 1575.8129639257083 450.71655229750775L1575.8129639257083 450.71655229750775Q1575.8129639257083 449.20950635648705 1577.9463146733872 446.5281389029826L1577.9463146733872 446.5281389029826Q1587.0277343699279 435.50908871084414 1603.4682355446992 435.50908871084414L1603.4682355446992 435.50908871084414Q1607.8132251408888 435.50908871084414 1612.353934989159 436.54640604687137Q1616.8946448374293 437.56415135769055 1619.360720013645 439.50178185328866ZM1588.2020558824113 496.8086716624921L1588.2020558824113 496.8086716624921Q1590.4724108065463 498.19828545226443 1591.333579915701 498.6680140572579Q1592.1947490248558 499.1573146874594 1594.2889557221183 499.7444754437013Q1596.3831624193808 500.3316361999431 1598.7905215199723 500.3316361999431L1598.7905215199723 500.3316361999431Q1601.824185427222 500.3316361999431 1604.7795612336392 499.43132304037226Q1607.7349370400564 498.53100988080143 1607.8719412165128 498.53100988080143L1607.8719412165128 498.53100988080143Q1609.4572752583656 498.53100988080143 1609.4572752583656 500.19463202348663L1609.4572752583656 500.19463202348663Q1609.4572752583656 501.29066543513807 1608.3612418467144 502.91514352740717Q1607.245636409855 504.5200495944682 1605.2688618638406 506.20324376236147Q1603.2725152926184 507.8864379302547 1599.7886948055836 509.0607594427384Q1596.3048743185486 510.2350809552221 1592.1947490248558 510.2350809552221L1592.1947490248558 510.2350809552221Q1586.4014295632699 510.2350809552221 1581.1169827570932 507.5537135017177Q1575.8129639257083 504.87234604821333 1575.8129639257083 502.05397441825244L1575.8129639257083 502.05397441825244Q1575.8129639257083 499.92062367057383 1578.6704796060856 497.66984077164676Q1581.5279952864623 495.43862989792774 1584.1310746391346 495.43862989792774L1584.1310746391346 495.43862989792774Q1585.853412857444 495.43862989792774 1588.2020558824113 496.8086716624921ZM1660.0901044716204 510.2350809552221L1660.0901044716204 510.2350809552221Q1654.3163570352424 510.2350809552221 1650.1475156659253 508.74760703940944Q1645.9982463218164 507.27970514880485 1643.375594943936 503.8741727626022Q1640.772515591264 500.46864037639955 1639.519905977948 495.0276173685585Q1638.2868683898403 489.5865943607174 1638.2868683898403 481.6012080758285L1638.2868683898403 481.6012080758285L1638.2868683898403 444.23821195363945Q1638.2868683898403 442.3984415840817 1639.285041675451 440.77396349181265Q1640.2832149610624 439.14948539954355 1641.770688876875 437.9947359122679Q1643.2385907674795 436.8204143997842 1645.000073036205 436.15496554271016Q1646.7419832797225 435.50908871084414 1648.2686012459515 435.50908871084414L1648.2686012459515 435.50908871084414Q1650.6759603465428 435.50908871084414 1650.6759603465428 438.4644645172614L1650.6759603465428 438.4644645172614L1650.6759603465428 480.3681704877206L1650.949968699456 485.6721893191052Q1651.2239770523686 489.5865943607174 1652.0460021111073 492.3853939654702Q1652.8680271698458 495.16462154501494 1654.531649312531 496.92610381374044Q1656.175699430008 498.6680140572579 1658.68091865664 499.5096111412045Q1661.2057099084798 500.3316361999431 1664.7873905215552 500.3316361999431L1664.7873905215552 500.3316361999431Q1670.482849857101 500.3316361999431 1675.1605638818276 497.65026874643866L1675.1605638818276 497.65026874643866Q1676.4718895707676 496.8869597633243 1676.882902100137 496.8869597633243L1676.882902100137 496.8869597633243Q1677.509206906795 496.8869597633243 1677.7440712092919 497.37626039352585Q1677.9985075369966 497.8459889985193 1677.9985075369966 499.43132304037226L1677.9985075369966 499.43132304037226Q1677.9985075369966 502.32798277116535 1676.0021609657742 504.34390136759566Q1674.0058143945519 506.379391989234 1671.1678707393833 507.6907176781741Q1668.3494991094224 509.0020433671142 1665.2962631769647 509.6087761485641Q1662.2234552192992 510.2350809552221 1660.0901044716204 510.2350809552221ZM1693.890992005942 438.4644645172614L1693.890992005942 438.4644645172614L1693.890992005942 500.11634392265444Q1693.890992005942 503.83502871218604 1690.4854596197395 506.3206759136099Q1687.0799272335369 508.78675108982554 1683.909259149831 508.78675108982554L1683.909259149831 508.78675108982554Q1681.5019000492396 508.78675108982554 1681.5019000492396 505.8313752834083L1681.5019000492396 505.8313752834083L1681.5019000492396 444.1794958780153Q1681.5019000492396 440.5978152649401 1684.9465764858583 438.0534519878921Q1688.3716808972688 435.50908871084414 1691.4836329053508 435.50908871084414L1691.4836329053508 435.50908871084414Q1693.890992005942 435.50908871084414 1693.890992005942 438.4644645172614ZM1710.8012217857072 505.8313752834083L1710.8012217857072 505.8313752834083L1710.8012217857072 411.00491315035146Q1710.8012217857072 407.30580038602784 1714.1871821467018 404.85929723502016Q1717.5535704824883 402.41279408401255 1720.7829546418186 402.41279408401255L1720.7829546418186 402.41279408401255Q1723.19031374241 402.41279408401255 1723.19031374241 405.3681698904298L1723.19031374241 405.3681698904298L1723.19031374241 500.19463202348663Q1723.19031374241 503.9720328886425 1719.8239254066232 506.379391989234Q1716.457537070837 508.78675108982554 1713.2281529115066 508.78675108982554L1713.2281529115066 508.78675108982554Q1710.8012217857072 508.78675108982554 1710.8012217857072 505.8313752834083ZM1758.967975822746 454.84624961640867L1758.967975822746 454.84624961640867L1758.967975822746 478.91984062232405Q1758.967975822746 484.8501642603666 1759.6725687302362 488.94071752885145Q1760.3575896125183 493.0312707973362 1761.6884873266665 495.5756340743842Q1763.038957066023 498.1199973514322 1765.074447687661 499.2160307630836Q1767.0903662840913 500.3316361999431 1769.8500218384281 500.3316361999431L1769.8500218384281 500.3316361999431Q1773.0794059977582 500.3316361999431 1775.2519007958529 499.52918316641257Q1777.424395593948 498.7463021580901 1778.8531534341362 497.80684494810316Q1780.3014832995325 496.8869597633243 1781.2605125347275 496.10407875500186Q1782.2391137951306 495.30162572147134 1783.198143030326 495.30162572147134L1783.198143030326 495.30162572147134Q1784.0984561898965 495.30162572147134 1784.5094687192661 495.8104983768809Q1784.9204812486353 496.33894305749857 1784.9204812486353 497.16096811623714L1784.9204812486353 497.16096811623714Q1784.9204812486353 498.33528962872083 1783.9810240386485 500.50778442681565Q1783.0611388538694 502.66070719970236 1780.8495000053583 504.8332019977972Q1778.657433182056 507.005696795892 1775.0366085185644 508.610602862953Q1771.4353558802811 510.2350809552221 1765.99433287244 510.2350809552221L1765.99433287244 510.2350809552221Q1760.6903140410552 510.2350809552221 1757.0107733019397 508.7280350142014Q1753.3312325628242 507.2014170479726 1751.002161563065 503.79588466176995Q1748.6535185380978 500.39035227556724 1747.6162012020707 494.9297572425182Q1746.5984558912512 489.449590184261 1746.5984558912512 481.464203899372L1746.5984558912512 481.464203899372L1746.5984558912512 454.84624961640867Q1746.5984558912512 453.339203675388 1747.244332723117 452.53675064185745Q1747.8902095549836 451.75386963353503 1748.8883828405944 451.4015731797899Q1749.8865561262053 451.06884875125286 1750.9630175126492 451.06884875125286Q1752.019906873884 451.06884875125286 1752.861503957831 451.06884875125286L1752.861503957831 451.06884875125286Q1754.0945415459385 451.06884875125286 1755.2297190080064 451.16670887729316Q1756.364896470074 451.26456900333346 1757.1869215288123 451.6364374822866Q1758.008946587551 452.02787798644783 1758.4982472177524 452.77161494435416Q1758.967975822746 453.5349239274686 1758.967975822746 454.84624961640867ZM1743.016775278176 439.9127943826579L1743.016775278176 439.9127943826579L1743.016775278176 443.8271994242702Q1743.016775278176 445.5495376425796 1742.2534662950618 446.5281389029826Q1741.4901573119475 447.48716813817765 1739.3568065642687 447.48716813817765L1739.3568065642687 447.48716813817765L1736.1274224049387 447.48716813817765Q1733.720063304347 447.48716813817765 1733.720063304347 445.96055017194885L1733.720063304347 445.96055017194885Q1733.720063304347 444.10120777718305 1736.7145831611804 440.87182361785295Q1739.7091030180138 437.6424394585228 1741.4901573119475 437.6424394585228L1741.4901573119475 437.6424394585228Q1743.016775278176 437.6424394585228 1743.016775278176 439.9127943826579ZM1758.967975822746 425.11634332536363L1758.967975822746 425.11634332536363L1758.967975822746 434.00204276982345Q1758.967975822746 436.1353935175021 1759.9465770831491 436.87913047540843Q1760.905606318344 437.6424394585228 1762.6279445366533 437.6424394585228L1762.6279445366533 437.6424394585228L1781.0647922826472 437.6424394585228Q1783.4721513832385 437.6424394585228 1783.4721513832385 439.2277735003758L1783.4721513832385 439.2277735003758Q1783.4721513832385 440.87182361785295 1781.1626524086876 443.3574708192767Q1778.8531534341362 445.82354599549245 1776.582798510001 446.6651430794391L1776.582798510001 446.6651430794391Q1774.3907316866982 447.48716813817765 1768.6757003259443 447.48716813817765L1768.6757003259443 447.48716813817765L1750.2388525799508 447.48716813817765Q1748.5165143616412 447.48716813817765 1747.5574851264466 446.7238591550632Q1746.5984558912512 445.96055017194885 1746.5984558912512 443.8271994242702L1746.5984558912512 443.8271994242702L1746.5984558912512 430.8313746861175Q1746.5984558912512 427.0539738209617 1749.9648442270375 424.607470669954Q1753.3312325628242 422.1609675189464 1756.5606167221542 422.1609675189464L1756.5606167221542 422.1609675189464Q1758.967975822746 422.1609675189464 1758.967975822746 425.11634332536363ZM1823.0272143287305 435.50908871084414L1823.0272143287305 435.50908871084414Q1838.7239785455956 435.50908871084414 1846.122204074243 444.7666566342571Q1853.5204296028899 454.0242245576701 1853.5204296028899 472.05005977429454L1853.5204296028899 472.05005977429454Q1853.5204296028899 477.628086958592 1852.1112437879099 483.98899515121195Q1850.702057972929 490.34990334383184 1848.2946988723377 495.30162572147134L1848.2946988723377 495.30162572147134Q1845.6720474944575 500.5273564520237 1841.8946466293016 504.18732516593116Q1838.097673738938 507.82772185463057 1835.7686027391785 507.82772185463057L1835.7686027391785 507.82772185463057Q1834.3202728737817 507.82772185463057 1834.3202728737817 506.5163961656905L1834.3202728737817 506.5163961656905Q1834.3202728737817 506.10538363632116 1834.8095735039835 505.42036275403905Q1835.2793021089767 504.7353418717569 1836.1013271677155 503.3261560567765Q1836.942924251662 501.9169702417961 1837.5496570331118 500.05762784703023L1837.5496570331118 500.05762784703023Q1840.3680286630727 492.3462499150541 1840.3680286630727 478.23481974004187L1840.3680286630727 478.23481974004187Q1840.3680286630727 470.4647257324416 1839.3111393018378 464.71055032127157Q1838.2346779153943 458.9759469353096 1835.8077467895944 454.49395316266356Q1833.3612436385868 450.0315314152256 1829.0162540423973 447.72203244067435Q1824.6908364714157 445.41253346612314 1818.4277884048363 445.41253346612314L1818.4277884048363 445.41253346612314Q1809.7573812376647 445.41253346612314 1800.5389573646682 451.75386963353503L1800.5389573646682 451.75386963353503Q1800.1866609109231 452.02787798644783 1799.501640028641 452.47803456623325Q1798.8166191463586 452.9086191208106 1798.4447506674057 453.2021994989315Q1798.0533101632443 453.4762078518444 1797.6422976338752 453.671928103925Q1797.231285104506 453.8872203812137 1796.957276751593 453.8872203812137L1796.957276751593 453.8872203812137Q1795.9982475163981 453.8872203812137 1795.9982475163981 452.71289886873L1795.9982475163981 452.71289886873Q1795.9982475163981 451.94958988561564 1796.7811285247205 450.5012600202191Q1797.5835815582507 449.0725021800306 1798.1315982640765 448.3679092725404L1798.1315982640765 448.3679092725404Q1808.1720471958122 435.50908871084414 1823.0272143287305 435.50908871084414ZM1806.2539887254222 470.1124292786965L1806.2539887254222 470.1124292786965Q1806.2539887254222 474.9271474798795 1806.4497089775025 478.37182391649833Q1806.6650012547914 481.81650035311714 1807.252162011033 485.53518514264874Q1807.8393227672748 489.2538699321804 1809.0332163049668 491.71994510839613Q1810.2466818678665 494.2055923098199 1812.0668802122161 496.2606549566664Q1813.8870785565662 498.33528962872083 1816.7054501865266 499.33346291433196Q1819.5238218164875 500.3316361999431 1823.3207947068515 500.3316361999431L1823.3207947068515 500.3316361999431Q1826.5501788661816 500.3316361999431 1828.9966820171892 499.43132304037226Q1831.4236131429886 498.53100988080143 1831.7759095967342 498.53100988080143L1831.7759095967342 498.53100988080143Q1833.2242394621305 498.53100988080143 1833.2242394621305 500.05762784703023L1833.2242394621305 500.05762784703023Q1833.2242394621305 503.1500078299039 1828.7813897399008 506.69254439256304Q1824.3385400176705 510.2350809552221 1817.8797716990105 510.2350809552221L1817.8797716990105 510.2350809552221Q1811.8907319853436 510.2350809552221 1807.4478822631138 508.2387343839998Q1803.0050325408836 506.24238781277757 1800.3236650873794 503.01300365344747Q1797.6422976338752 499.7836194941174 1796.037391566814 494.890613192102Q1794.4129134745451 489.99760689008673 1793.8648967687193 485.04588451244723Q1793.3168800628935 480.09416213480773 1793.3168800628935 473.8311140682281L1793.3168800628935 473.8311140682281Q1793.3168800628935 470.32772155598514 1794.0019009451755 466.432888539581Q1794.6869218274576 462.55762754838486 1795.8612433399414 460.48299287633034L1795.8612433399414 460.48299287633034Q1797.3095732053382 458.0169177001146 1800.499813314252 455.9422830280601Q1803.7096254483743 453.8872203812137 1805.9799803725089 453.8872203812137L1805.9799803725089 453.8872203812137Q1807.6827465656104 453.8872203812137 1807.6827465656104 455.9422830280601L1807.6827465656104 455.9422830280601Q1807.6827465656104 456.2945794818052 1806.9781536581206 461.2463018594447Q1806.2539887254222 466.19802423708427 1806.2539887254222 470.1124292786965ZM1868.4538848366408 505.8313752834083L1868.4538848366408 505.8313752834083L1868.4538848366408 471.14974661472377Q1868.4538848366408 467.29405764873565 1870.3132272314067 465.23899500188924L1870.3132272314067 465.23899500188924Q1872.1725696261726 463.1056442542106 1874.7169329032201 461.344161985485Q1877.2612961802686 459.5826797167595 1878.709626045665 459.5826797167595L1878.709626045665 459.5826797167595Q1880.8429767933433 459.5826797167595 1880.8429767933433 462.55762754838486L1880.8429767933433 462.55762754838486L1880.8429767933433 500.11634392265444Q1880.8429767933433 503.9133168130183 1877.4570164323488 506.3402479388179Q1874.0906280965626 508.78675108982554 1870.8612439372325 508.78675108982554L1870.8612439372325 508.78675108982554Q1868.4538848366408 508.78675108982554 1868.4538848366408 505.8313752834083ZM1898.0272149260215 435.50908871084414L1898.0272149260215 435.50908871084414Q1901.9611919928418 435.50908871084414 1906.2670375386149 437.23142692915354Q1910.5533110591807 438.95376514746295 1910.5533110591807 441.69384867659153L1910.5533110591807 441.69384867659153Q1910.5533110591807 443.90548752510244 1907.6762233535958 446.27370257527787Q1904.7795636228022 448.6419176254533 1902.5874967994994 448.6419176254533L1902.5874967994994 448.6419176254533Q1900.728154404734 448.6419176254533 1897.3421940437395 446.93915143235193L1897.3421940437395 446.93915143235193Q1894.1910979852412 445.41253346612314 1891.568446607361 445.41253346612314L1891.568446607361 445.41253346612314Q1889.924396489884 445.41253346612314 1888.397778523655 445.9409781467408Q1886.8907325826347 446.4498508021504 1884.894386011412 447.93732471796307Q1882.89803944019 449.40522660856766 1881.6258578016661 450.48168799501104Q1880.353676163142 451.5385773562463 1877.3004402306844 454.39609303662326Q1874.2276322730188 457.25360871700025 1872.5052940547096 458.76065465802094L1872.5052940547096 458.76065465802094Q1870.9982481136888 460.071980346961 1869.9609307776616 460.071980346961L1869.9609307776616 460.071980346961Q1868.4538848366408 460.071980346961 1868.4538848366408 457.52761706991305L1868.4538848366408 457.52761706991305L1868.4538848366408 444.1794958780153Q1868.4538848366408 440.46081108848364 1871.8594172228434 437.9947359122679Q1875.2649496090464 435.50908871084414 1878.435617692752 435.50908871084414L1878.435617692752 435.50908871084414Q1880.8429767933433 435.50908871084414 1880.8429767933433 438.4644645172614L1880.8429767933433 438.4644645172614L1880.8429767933433 442.32015348324944Q1880.8429767933433 444.5317923317604 1881.8020060285382 444.5317923317604L1881.8020060285382 444.5317923317604Q1882.5457429864448 444.5317923317604 1884.20936512913 442.86817018907516L1884.20936512913 442.86817018907516Q1891.568446607361 435.50908871084414 1898.0272149260215 435.50908871084414ZM1931.417089930974 438.4644645172614L1931.417089930974 438.4644645172614L1931.417089930974 499.92062367057383Q1931.417089930974 502.52370302324596 1930.164480317658 504.18732516593116L1930.164480317658 504.18732516593116Q1928.3834260237243 506.24238781277757 1925.9369228727167 507.51456945130155Q1923.490419721709 508.78675108982554 1921.4353570748628 508.78675108982554L1921.4353570748628 508.78675108982554Q1919.027997974271 508.78675108982554 1919.027997974271 505.8313752834083L1919.027997974271 505.8313752834083L1919.027997974271 444.39478815530396Q1919.027997974271 441.7721367774237 1920.261035562379 440.1868027355708L1920.261035562379 440.1868027355708Q1922.0420898563127 438.13174008872437 1924.4885930073203 436.8204143997842Q1926.935096158328 435.50908871084414 1929.0097308303823 435.50908871084414L1929.0097308303823 435.50908871084414Q1931.417089930974 435.50908871084414 1931.417089930974 438.4644645172614ZM1931.417089930974 402.6280863613012L1931.417089930974 402.6280863613012L1931.417089930974 412.5902471922044Q1931.417089930974 415.21289857008463 1930.164480317658 416.8569486875618L1930.164480317658 416.8569486875618Q1928.3834260237243 418.93158335961624 1925.9369228727167 420.20376499814023Q1923.490419721709 421.4759466366642 1921.4353570748628 421.4759466366642L1921.4353570748628 421.4759466366642Q1919.027997974271 421.4759466366642 1919.027997974271 418.520570830247L1919.027997974271 418.520570830247L1919.027997974271 408.5388379741357Q1919.027997974271 405.8574705206313 1920.261035562379 404.3308525544025L1920.261035562379 404.3308525544025Q1922.0420898563127 402.2757899075561 1924.4885930073203 400.964464218616Q1926.935096158328 399.6531385296759 1929.0097308303823 399.6531385296759L1929.0097308303823 399.6531385296759Q1931.417089930974 399.6531385296759 1931.417089930974 402.6280863613012ZM1975.6498669011924 435.50908871084414L1975.6498669011924 435.50908871084414Q1981.4236143375704 435.50908871084414 1986.0426122866727 437.01613465186483Q1990.6616102357755 438.54275261809363 1993.8127062942733 441.869996903464Q1996.9833743779793 445.21681321404253 1998.6665685458722 450.48168799501104Q2000.3497627137656 455.7465627759795 2000.3497627137656 463.1643603298347L2000.3497627137656 463.1643603298347L2000.3497627137656 500.46864037639955Q2000.3497627137656 502.1909785947089 1999.2928733525303 503.69802453572964Q1998.2164119660872 505.20507047675034 1996.6702219746505 506.3402479388179Q1995.1240319832134 507.47542540088546 1993.3625497144878 508.1408742579595Q1991.6206394709704 508.78675108982554 1990.3093137820304 508.78675108982554L1990.3093137820304 508.78675108982554Q1987.9019546814386 508.78675108982554 1987.9019546814386 505.8313752834083L1987.9019546814386 505.8313752834083L1987.9019546814386 465.7087236068827Q1987.9019546814386 445.41253346612314 1971.7941779352043 445.41253346612314L1971.7941779352043 445.41253346612314Q1962.4387498857511 445.41253346612314 1954.8056600546072 450.57954812105135L1954.8056600546072 450.57954812105135Q1951.7719961473574 452.57589469227355 1950.871682987787 452.57589469227355L1950.871682987787 452.57589469227355Q1949.853937676968 452.57589469227355 1949.853937676968 451.4798612806221L1949.853937676968 451.4798612806221Q1949.853937676968 449.54223078502406 1951.9872884246463 446.93915143235193L1951.9872884246463 446.93915143235193Q1961.3427164740995 435.50908871084414 1975.6498669011924 435.50908871084414ZM1982.6762239508864 504.24604124155536L1982.6762239508864 504.24604124155536Q1979.7795642200933 506.86869261943554 1975.5128627247357 508.55188678732884Q1971.2461612293785 510.2350809552221 1967.3317561877664 510.2350809552221L1967.3317561877664 510.2350809552221Q1958.172048390394 510.2350809552221 1953.3181861387945 505.3812187036229Q1948.4643238871952 500.5273564520237 1948.4643238871952 493.44228332670554L1948.4643238871952 493.44228332670554Q1948.4643238871952 488.3535567726096 1951.9872884246463 485.6721893191052L1951.9872884246463 485.6721893191052Q1955.1383844831441 483.18654211768137 1957.4870275081114 483.18654211768137L1957.4870275081114 483.18654211768137Q1958.2503364912257 483.18654211768137 1958.7983531970515 483.73455882350714Q1959.3463699028773 484.3021475545409 1959.3463699028773 485.39818096619234L1959.3463699028773 485.39818096619234Q1959.3463699028773 493.2465630746249 1962.0277373563815 496.789099637284Q1964.7091048098862 500.3316361999431 1971.5984576831236 500.3316361999431L1971.5984576831236 500.3316361999431Q1973.6535203299702 500.3316361999431 1976.6088961363873 499.6074712672448Q1979.5838439680126 498.88330633454655 1981.6389066148593 497.65026874643866L1981.6389066148593 497.65026874643866Q1982.8719442029667 496.8869597633243 1983.4982490096252 496.8869597633243L1983.4982490096252 496.8869597633243Q1984.4572782448201 496.8869597633243 1984.4572782448201 499.43132304037226L1984.4572782448201 499.43132304037226Q1984.4572782448201 502.6019911240782 1982.6762239508864 504.24604124155536ZM1982.1282072450606 467.09833739665504L1982.1282072450606 467.09833739665504Q1983.419960908793 467.78335827893716 1983.9092615389943 468.91853574100475Q1984.3985621691957 470.0537132030723 1984.3985621691957 473.146093185946L1984.3985621691957 473.146093185946Q1984.3985621691957 475.9057487402826 1983.9484055894106 477.09964227797434Q1983.4982490096252 478.3131078408742 1982.3239274971413 478.3131078408742L1982.3239274971413 478.3131078408742Q1981.560618514027 478.3131078408742 1980.190576749463 477.6868030342162L1980.190576749463 477.6868030342162Q1973.7318084308024 474.8684314042554 1968.486505675042 474.8684314042554L1968.486505675042 474.8684314042554Q1960.0313907851594 474.8684314042554 1952.3983009540154 480.99447529437856L1952.3983009540154 480.99447529437856Q1949.9909418534241 482.91253376476857 1949.1689167946854 482.91253376476857L1949.1689167946854 482.91253376476857Q1948.053311357826 482.91253376476857 1948.053311357826 481.6794961766607L1948.053311357826 481.6794961766607Q1948.053311357826 479.76143770627067 1949.4429251475983 477.49108278213555L1949.4429251475983 477.49108278213555Q1953.083321836298 471.3650388920124 1959.0332174995485 468.1552267578904Q1964.9831131627986 464.9649866489764 1972.2834785654056 464.9649866489764L1972.2834785654056 464.9649866489764Q1977.8615057497034 464.9649866489764 1982.1282072450606 467.09833739665504Z " fill="#5550f5" transform="matrix(0.4374235140754764,0,0,0.43742351407547636,0,92.375552342175)"/></g></svg>